<svg width="708" height="508" viewBox="0 0 708 508" fill="none" xmlns="http://www.w3.org/2000/svg">
<g filter="url(#filter0_bdii_54_19)">
<path d="M51 61C51 51.0589 59.0589 43 69 43H633C642.941 43 651 51.0589 651 61V105.012V425C651 434.941 642.941 443 633 443H69C59.0589 443 51 434.941 51 425V61Z" fill="#EDEDED" fill-opacity="0.12" shape-rendering="crispEdges"/>
<path d="M51.5 61C51.5 51.335 59.335 43.5 69 43.5H633C642.665 43.5 650.5 51.335 650.5 61V105.012V425C650.5 434.665 642.665 442.5 633 442.5H69C59.335 442.5 51.5 434.665 51.5 425V61Z" stroke="white" stroke-opacity="0.32" shape-rendering="crispEdges"/>
</g>
<path d="M247.901 75.5291C247.827 74.7843 247.51 74.2057 246.95 73.7933C246.39 73.3809 245.63 73.1747 244.67 73.1747C244.017 73.1747 243.466 73.267 243.017 73.4517C242.568 73.6302 242.223 73.8795 241.983 74.1996C241.749 74.5196 241.632 74.8828 241.632 75.2891C241.62 75.6276 241.691 75.9231 241.844 76.1754C242.004 76.4278 242.223 76.6463 242.5 76.831C242.777 77.0095 243.097 77.1664 243.46 77.3018C243.823 77.4311 244.211 77.5419 244.624 77.6342L246.322 78.0405C247.147 78.2251 247.904 78.4714 248.594 78.7791C249.283 79.0869 249.88 79.4654 250.385 79.9148C250.89 80.3641 251.281 80.8935 251.558 81.5028C251.841 82.1122 251.985 82.8108 251.991 83.5987C251.985 84.7559 251.69 85.7592 251.105 86.6087C250.527 87.4519 249.689 88.1075 248.594 88.5753C247.504 89.0369 246.19 89.2678 244.651 89.2678C243.125 89.2678 241.795 89.0339 240.663 88.5661C239.536 88.0982 238.656 87.4058 238.022 86.4886C237.394 85.5653 237.065 84.4235 237.034 83.0632H240.903C240.946 83.6972 241.127 84.2266 241.447 84.6513C241.774 85.0698 242.208 85.3868 242.749 85.6023C243.297 85.8116 243.916 85.9162 244.605 85.9162C245.282 85.9162 245.87 85.8177 246.369 85.6207C246.873 85.4238 247.264 85.1499 247.541 84.799C247.818 84.4482 247.957 84.045 247.957 83.5895C247.957 83.1648 247.83 82.8078 247.578 82.5185C247.332 82.2292 246.969 81.983 246.489 81.7798C246.015 81.5767 245.433 81.392 244.744 81.2259L242.685 80.7088C241.09 80.321 239.832 79.7147 238.908 78.8899C237.985 78.0651 237.527 76.9541 237.533 75.5568C237.527 74.4119 237.831 73.4117 238.447 72.5561C239.068 71.7005 239.921 71.0327 241.004 70.5526C242.088 70.0724 243.319 69.8324 244.697 69.8324C246.101 69.8324 247.326 70.0724 248.372 70.5526C249.425 71.0327 250.243 71.7005 250.828 72.5561C251.413 73.4117 251.714 74.4027 251.733 75.5291H247.901ZM258.651 89.2678C257.746 89.2678 256.94 89.1108 256.232 88.7969C255.524 88.4768 254.964 88.0059 254.551 87.3842C254.145 86.7564 253.942 85.9747 253.942 85.0391C253.942 84.2512 254.087 83.5895 254.376 83.054C254.665 82.5185 255.059 82.0876 255.558 81.7614C256.056 81.4351 256.623 81.1889 257.257 81.0227C257.897 80.8565 258.568 80.7396 259.269 80.6719C260.094 80.5857 260.759 80.5057 261.264 80.4318C261.768 80.3518 262.135 80.2348 262.362 80.081C262.59 79.9271 262.704 79.6993 262.704 79.3977V79.3423C262.704 78.7576 262.519 78.3052 262.15 77.9851C261.787 77.665 261.27 77.505 260.599 77.505C259.891 77.505 259.328 77.6619 258.909 77.9759C258.491 78.2836 258.214 78.6714 258.078 79.1392L254.441 78.8438C254.625 77.982 254.988 77.2372 255.53 76.6094C256.072 75.9754 256.77 75.4891 257.626 75.1506C258.488 74.8059 259.485 74.6335 260.617 74.6335C261.405 74.6335 262.159 74.7259 262.879 74.9105C263.606 75.0952 264.249 75.3814 264.809 75.7692C265.375 76.157 265.822 76.6555 266.148 77.2649C266.474 77.8681 266.637 78.5914 266.637 79.4347V89H262.907V87.0334H262.796C262.569 87.4766 262.264 87.8674 261.882 88.206C261.501 88.5384 261.042 88.8 260.507 88.9908C259.971 89.1754 259.352 89.2678 258.651 89.2678ZM259.777 86.5533C260.356 86.5533 260.867 86.4394 261.31 86.2116C261.753 85.9777 262.101 85.6638 262.353 85.2699C262.606 84.8759 262.732 84.4297 262.732 83.9311V82.4261C262.609 82.5062 262.439 82.58 262.224 82.6477C262.015 82.7093 261.778 82.7678 261.513 82.8232C261.248 82.8724 260.984 82.9186 260.719 82.9616C260.454 82.9986 260.214 83.0324 259.999 83.0632C259.537 83.1309 259.134 83.2386 258.789 83.3864C258.445 83.5341 258.177 83.7341 257.986 83.9865C257.795 84.2327 257.7 84.5405 257.7 84.9098C257.7 85.4453 257.894 85.8546 258.281 86.1378C258.675 86.4148 259.174 86.5533 259.777 86.5533ZM273.622 70.0909V89H269.689V70.0909H273.622ZM280.706 70.0909V89H276.773V70.0909H280.706ZM290.264 89.277C288.83 89.277 287.59 88.9723 286.544 88.3629C285.503 87.7474 284.7 86.8918 284.134 85.7962C283.567 84.6944 283.284 83.4171 283.284 81.9645C283.284 80.4995 283.567 79.2192 284.134 78.1236C284.7 77.0218 285.503 76.1662 286.544 75.5568C287.59 74.9413 288.83 74.6335 290.264 74.6335C291.699 74.6335 292.936 74.9413 293.976 75.5568C295.022 76.1662 295.829 77.0218 296.395 78.1236C296.961 79.2192 297.244 80.4995 297.244 81.9645C297.244 83.4171 296.961 84.6944 296.395 85.7962C295.829 86.8918 295.022 87.7474 293.976 88.3629C292.936 88.9723 291.699 89.277 290.264 89.277ZM290.283 86.2301C290.935 86.2301 291.48 86.0455 291.917 85.6761C292.354 85.3007 292.683 84.7898 292.905 84.1435C293.133 83.4972 293.247 82.7616 293.247 81.9368C293.247 81.112 293.133 80.3764 292.905 79.7301C292.683 79.0838 292.354 78.5729 291.917 78.1974C291.48 77.822 290.935 77.6342 290.283 77.6342C289.624 77.6342 289.07 77.822 288.621 78.1974C288.178 78.5729 287.842 79.0838 287.615 79.7301C287.393 80.3764 287.282 81.112 287.282 81.9368C287.282 82.7616 287.393 83.4972 287.615 84.1435C287.842 84.7898 288.178 85.3007 288.621 85.6761C289.07 86.0455 289.624 86.2301 290.283 86.2301ZM302.244 89L298.385 74.8182H302.364L304.562 84.3466H304.691L306.981 74.8182H310.886L313.213 84.2912H313.333L315.493 74.8182H319.464L315.613 89H311.449L309.012 80.081H308.836L306.399 89H302.244ZM334.79 82.4261H338.188L339.896 84.6236L341.577 86.581L344.743 90.5511H341.013L338.834 87.8736L337.717 86.2855L334.79 82.4261ZM345.03 79.5455C345.03 81.6075 344.639 83.3617 343.857 84.8082C343.081 86.2547 342.023 87.3596 340.681 88.1229C339.345 88.88 337.843 89.2585 336.175 89.2585C334.495 89.2585 332.987 88.8769 331.651 88.1136C330.315 87.3504 329.26 86.2455 328.484 84.799C327.709 83.3525 327.321 81.6013 327.321 79.5455C327.321 77.4834 327.709 75.7292 328.484 74.2827C329.26 72.8362 330.315 71.7344 331.651 70.9773C332.987 70.214 334.495 69.8324 336.175 69.8324C337.843 69.8324 339.345 70.214 340.681 70.9773C342.023 71.7344 343.081 72.8362 343.857 74.2827C344.639 75.7292 345.03 77.4834 345.03 79.5455ZM340.976 79.5455C340.976 78.2098 340.776 77.0833 340.376 76.1662C339.982 75.2491 339.425 74.5535 338.705 74.0795C337.985 73.6056 337.142 73.3686 336.175 73.3686C335.209 73.3686 334.366 73.6056 333.645 74.0795C332.925 74.5535 332.365 75.2491 331.965 76.1662C331.571 77.0833 331.374 78.2098 331.374 79.5455C331.374 80.8812 331.571 82.0076 331.965 82.9247C332.365 83.8419 332.925 84.5374 333.645 85.0114C334.366 85.4853 335.209 85.7223 336.175 85.7223C337.142 85.7223 337.985 85.4853 338.705 85.0114C339.425 84.5374 339.982 83.8419 340.376 82.9247C340.776 82.0076 340.976 80.8812 340.976 79.5455ZM357.012 82.9616V74.8182H360.945V89H357.169V86.424H357.021C356.701 87.255 356.168 87.9228 355.424 88.4276C354.685 88.9323 353.783 89.1847 352.718 89.1847C351.77 89.1847 350.936 88.9692 350.216 88.5384C349.496 88.1075 348.933 87.495 348.527 86.701C348.127 85.907 347.923 84.956 347.917 83.848V74.8182H351.85V83.1463C351.857 83.9834 352.081 84.6451 352.525 85.1314C352.968 85.6177 353.562 85.8608 354.306 85.8608C354.78 85.8608 355.224 85.7531 355.636 85.5376C356.048 85.3161 356.381 84.9898 356.633 84.5589C356.892 84.1281 357.018 83.5956 357.012 82.9616ZM368.135 89.2678C367.23 89.2678 366.424 89.1108 365.716 88.7969C365.008 88.4768 364.448 88.0059 364.036 87.3842C363.629 86.7564 363.426 85.9747 363.426 85.0391C363.426 84.2512 363.571 83.5895 363.86 83.054C364.15 82.5185 364.544 82.0876 365.042 81.7614C365.541 81.4351 366.107 81.1889 366.741 81.0227C367.381 80.8565 368.052 80.7396 368.754 80.6719C369.579 80.5857 370.243 80.5057 370.748 80.4318C371.253 80.3518 371.619 80.2348 371.847 80.081C372.075 79.9271 372.188 79.6993 372.188 79.3977V79.3423C372.188 78.7576 372.004 78.3052 371.634 77.9851C371.271 77.665 370.754 77.505 370.083 77.505C369.375 77.505 368.812 77.6619 368.394 77.9759C367.975 78.2836 367.698 78.6714 367.563 79.1392L363.925 78.8438C364.11 77.982 364.473 77.2372 365.014 76.6094C365.556 75.9754 366.255 75.4891 367.11 75.1506C367.972 74.8059 368.969 74.6335 370.102 74.6335C370.89 74.6335 371.644 74.7259 372.364 74.9105C373.09 75.0952 373.733 75.3814 374.294 75.7692C374.86 76.157 375.306 76.6555 375.632 77.2649C375.959 77.8681 376.122 78.5914 376.122 79.4347V89H372.392V87.0334H372.281C372.053 87.4766 371.748 87.8674 371.367 88.206C370.985 88.5384 370.526 88.8 369.991 88.9908C369.455 89.1754 368.837 89.2678 368.135 89.2678ZM369.262 86.5533C369.84 86.5533 370.351 86.4394 370.794 86.2116C371.237 85.9777 371.585 85.6638 371.838 85.2699C372.09 84.8759 372.216 84.4297 372.216 83.9311V82.4261C372.093 82.5062 371.924 82.58 371.708 82.6477C371.499 82.7093 371.262 82.7678 370.997 82.8232C370.733 82.8724 370.468 82.9186 370.203 82.9616C369.939 82.9986 369.699 83.0324 369.483 83.0632C369.021 83.1309 368.618 83.2386 368.274 83.3864C367.929 83.5341 367.661 83.7341 367.47 83.9865C367.28 84.2327 367.184 84.5405 367.184 84.9098C367.184 85.4453 367.378 85.8546 367.766 86.1378C368.16 86.4148 368.658 86.5533 369.262 86.5533ZM382.737 84.919L382.746 80.201H383.319L387.861 74.8182H392.376L386.273 81.946H385.341L382.737 84.919ZM379.173 89V70.0909H383.106V89H379.173ZM388.037 89L383.863 82.8232L386.486 80.044L392.644 89H388.037ZM400.185 89.277C398.726 89.277 397.471 88.9815 396.418 88.3906C395.372 87.7936 394.565 86.9503 393.999 85.8608C393.433 84.7652 393.15 83.4695 393.15 81.9737C393.15 80.5149 393.433 79.2346 393.999 78.1328C394.565 77.031 395.362 76.1723 396.39 75.5568C397.424 74.9413 398.637 74.6335 400.028 74.6335C400.964 74.6335 401.835 74.7843 402.641 75.0859C403.453 75.3814 404.161 75.8277 404.765 76.4247C405.374 77.0218 405.848 77.7727 406.186 78.6776C406.525 79.5762 406.694 80.6288 406.694 81.8352V82.9155H394.719V80.478H402.992C402.992 79.9117 402.869 79.41 402.623 78.973C402.376 78.536 402.035 78.1944 401.598 77.9482C401.167 77.6958 400.665 77.5696 400.093 77.5696C399.496 77.5696 398.966 77.7081 398.505 77.9851C398.049 78.2559 397.692 78.6222 397.434 79.0838C397.175 79.5393 397.043 80.0471 397.037 80.6072V82.9247C397.037 83.6264 397.166 84.2327 397.424 84.7436C397.689 85.2545 398.061 85.6484 398.542 85.9254C399.022 86.2024 399.591 86.3409 400.25 86.3409C400.687 86.3409 401.087 86.2794 401.45 86.1562C401.813 86.0331 402.124 85.8485 402.382 85.6023C402.641 85.3561 402.838 85.0545 402.973 84.6974L406.611 84.9375C406.426 85.8116 406.048 86.5748 405.475 87.2273C404.909 87.8736 404.177 88.3783 403.278 88.7415C402.386 89.0985 401.355 89.277 400.185 89.277ZM415.352 89V70.0909H422.813C424.247 70.0909 425.469 70.3648 426.478 70.9126C427.488 71.4543 428.257 72.2083 428.786 73.1747C429.322 74.1349 429.59 75.2429 429.59 76.4986C429.59 77.7543 429.319 78.8622 428.777 79.8224C428.236 80.7827 427.451 81.5305 426.423 82.0661C425.401 82.6016 424.164 82.8693 422.711 82.8693H417.956V79.6655H422.065C422.834 79.6655 423.468 79.5331 423.967 79.2685C424.472 78.9976 424.847 78.6252 425.093 78.1513C425.346 77.6712 425.472 77.1203 425.472 76.4986C425.472 75.8707 425.346 75.3229 425.093 74.8551C424.847 74.3812 424.472 74.0149 423.967 73.7564C423.462 73.4917 422.822 73.3594 422.046 73.3594H419.35V89H415.352ZM436.046 70.0909V89H432.113V70.0909H436.046ZM445.604 89.277C444.17 89.277 442.93 88.9723 441.883 88.3629C440.843 87.7474 440.04 86.8918 439.474 85.7962C438.907 84.6944 438.624 83.4171 438.624 81.9645C438.624 80.4995 438.907 79.2192 439.474 78.1236C440.04 77.0218 440.843 76.1662 441.883 75.5568C442.93 74.9413 444.17 74.6335 445.604 74.6335C447.038 74.6335 448.276 74.9413 449.316 75.5568C450.362 76.1662 451.169 77.0218 451.735 78.1236C452.301 79.2192 452.584 80.4995 452.584 81.9645C452.584 83.4171 452.301 84.6944 451.735 85.7962C451.169 86.8918 450.362 87.7474 449.316 88.3629C448.276 88.9723 447.038 89.277 445.604 89.277ZM445.623 86.2301C446.275 86.2301 446.82 86.0455 447.257 85.6761C447.694 85.3007 448.023 84.7898 448.245 84.1435C448.473 83.4972 448.586 82.7616 448.586 81.9368C448.586 81.112 448.473 80.3764 448.245 79.7301C448.023 79.0838 447.694 78.5729 447.257 78.1974C446.82 77.822 446.275 77.6342 445.623 77.6342C444.964 77.6342 444.41 77.822 443.961 78.1974C443.518 78.5729 443.182 79.0838 442.954 79.7301C442.733 80.3764 442.622 81.112 442.622 81.9368C442.622 82.7616 442.733 83.4972 442.954 84.1435C443.182 84.7898 443.518 85.3007 443.961 85.6761C444.41 86.0455 444.964 86.2301 445.623 86.2301ZM462.685 74.8182V77.7727H454.145V74.8182H462.685ZM456.084 71.4205H460.017V84.642C460.017 85.0052 460.072 85.2884 460.183 85.4915C460.294 85.6884 460.448 85.8269 460.645 85.907C460.848 85.987 461.082 86.027 461.346 86.027C461.531 86.027 461.716 86.0116 461.9 85.9808C462.085 85.9439 462.227 85.9162 462.325 85.8977L462.944 88.8246C462.747 88.8861 462.47 88.9569 462.113 89.0369C461.756 89.1231 461.322 89.1754 460.811 89.1939C459.863 89.2308 459.032 89.1046 458.318 88.8153C457.61 88.526 457.059 88.0767 456.665 87.4673C456.271 86.858 456.077 86.0885 456.084 85.1591V71.4205Z" fill="white"/>
<path d="M111.381 115.166V405.508" stroke="#F0F0F0"/>
<path d="M233.304 115.166V405.508" stroke="#F0F0F0"/>
<path d="M356.26 115.166V405.508" stroke="#F0F0F0"/>
<path d="M478.183 115.166V405.508" stroke="#F0F0F0"/>
<path d="M601.139 115.166V405.508" stroke="#F0F0F0"/>
<path d="M111.897 406.025H600.623" stroke="#F0F0F0"/>
<path d="M111.897 333.698H600.623" stroke="#F0F0F0"/>
<path d="M111.897 261.37H600.623" stroke="#F0F0F0"/>
<path d="M111.897 188.01H600.623" stroke="#F0F0F0"/>
<path d="M111.897 114.65H600.623" stroke="#F0F0F0"/>
<path d="M111.897 406.025H600.623" stroke="#F0F0F0"/>
<path d="M111.381 115.166V405.508" stroke="#F0F0F0"/>
<path d="M105.843 415.665V422.774H104.915V415.665H105.843ZM108.128 415.665V416.436H102.635V415.665H108.128ZM110.75 422.872C110.383 422.872 110.049 422.81 109.749 422.686C109.453 422.559 109.198 422.382 108.983 422.154C108.771 421.926 108.608 421.656 108.495 421.344C108.381 421.031 108.324 420.689 108.324 420.318V420.113C108.324 419.683 108.387 419.301 108.514 418.966C108.641 418.627 108.814 418.341 109.032 418.106C109.25 417.872 109.497 417.694 109.774 417.574C110.051 417.454 110.337 417.393 110.633 417.393C111.011 417.393 111.336 417.458 111.61 417.589C111.886 417.719 112.113 417.901 112.289 418.135C112.464 418.367 112.594 418.64 112.679 418.956C112.764 419.268 112.806 419.61 112.806 419.981V420.386H108.861V419.649H111.903V419.581C111.89 419.346 111.841 419.119 111.756 418.897C111.675 418.676 111.545 418.494 111.366 418.35C111.187 418.207 110.942 418.135 110.633 418.135C110.428 418.135 110.239 418.179 110.067 418.267C109.894 418.352 109.746 418.479 109.622 418.648C109.499 418.817 109.403 419.024 109.334 419.268C109.266 419.512 109.232 419.794 109.232 420.113V420.318C109.232 420.569 109.266 420.805 109.334 421.026C109.406 421.244 109.509 421.436 109.642 421.602C109.779 421.768 109.943 421.899 110.135 421.993C110.331 422.087 110.552 422.135 110.799 422.135C111.118 422.135 111.388 422.069 111.61 421.939C111.831 421.809 112.025 421.635 112.191 421.417L112.738 421.851C112.624 422.024 112.479 422.188 112.303 422.344C112.127 422.501 111.911 422.628 111.654 422.725C111.4 422.823 111.099 422.872 110.75 422.872ZM114.471 417.491L115.628 419.415L116.8 417.491H117.86L116.131 420.098L117.914 422.774H116.869L115.648 420.792L114.427 422.774H113.377L115.155 420.098L113.431 417.491H114.471ZM121.034 417.491V418.184H118.177V417.491H121.034ZM119.144 416.207H120.047V421.466C120.047 421.645 120.075 421.78 120.13 421.871C120.186 421.962 120.257 422.022 120.345 422.052C120.433 422.081 120.527 422.095 120.628 422.095C120.703 422.095 120.781 422.089 120.863 422.076C120.947 422.06 121.011 422.047 121.053 422.037L121.058 422.774C120.986 422.797 120.892 422.818 120.775 422.838C120.661 422.86 120.523 422.872 120.36 422.872C120.138 422.872 119.935 422.828 119.749 422.74C119.564 422.652 119.416 422.506 119.305 422.301C119.198 422.092 119.144 421.812 119.144 421.461V416.207Z" fill="#A3A3A3"/>
<path d="M228.024 415.665V422.774H227.096V415.665H228.024ZM230.309 415.665V416.436H224.816V415.665H230.309ZM232.931 422.872C232.563 422.872 232.23 422.81 231.93 422.686C231.634 422.559 231.378 422.382 231.164 422.154C230.952 421.926 230.789 421.656 230.675 421.344C230.561 421.031 230.504 420.689 230.504 420.318V420.113C230.504 419.683 230.568 419.301 230.695 418.966C230.822 418.627 230.994 418.341 231.212 418.106C231.43 417.872 231.678 417.694 231.955 417.574C232.231 417.454 232.518 417.393 232.814 417.393C233.192 417.393 233.517 417.458 233.79 417.589C234.067 417.719 234.293 417.901 234.469 418.135C234.645 418.367 234.775 418.64 234.86 418.956C234.944 419.268 234.987 419.61 234.987 419.981V420.386H231.041V419.649H234.083V419.581C234.07 419.346 234.022 419.119 233.937 418.897C233.856 418.676 233.725 418.494 233.546 418.35C233.367 418.207 233.123 418.135 232.814 418.135C232.609 418.135 232.42 418.179 232.247 418.267C232.075 418.352 231.927 418.479 231.803 418.648C231.679 418.817 231.583 419.024 231.515 419.268C231.447 419.512 231.413 419.794 231.413 420.113V420.318C231.413 420.569 231.447 420.805 231.515 421.026C231.587 421.244 231.689 421.436 231.823 421.602C231.959 421.768 232.124 421.899 232.316 421.993C232.511 422.087 232.733 422.135 232.98 422.135C233.299 422.135 233.569 422.069 233.79 421.939C234.012 421.809 234.206 421.635 234.372 421.417L234.918 421.851C234.804 422.024 234.66 422.188 234.484 422.344C234.308 422.501 234.092 422.628 233.834 422.725C233.581 422.823 233.279 422.872 232.931 422.872ZM236.652 417.491L237.809 419.415L238.981 417.491H240.04L238.312 420.098L240.094 422.774H239.049L237.829 420.792L236.608 422.774H235.558L237.335 420.098L235.612 417.491H236.652ZM243.214 417.491V418.184H240.358V417.491H243.214ZM241.325 416.207H242.228V421.466C242.228 421.645 242.256 421.78 242.311 421.871C242.366 421.962 242.438 422.022 242.526 422.052C242.614 422.081 242.708 422.095 242.809 422.095C242.884 422.095 242.962 422.089 243.043 422.076C243.128 422.06 243.192 422.047 243.234 422.037L243.239 422.774C243.167 422.797 243.073 422.818 242.956 422.838C242.842 422.86 242.703 422.872 242.54 422.872C242.319 422.872 242.116 422.828 241.93 422.74C241.745 422.652 241.596 422.506 241.486 422.301C241.378 422.092 241.325 421.812 241.325 421.461V416.207Z" fill="#A3A3A3"/>
<path d="M350.206 415.665V422.774H349.278V415.665H350.206ZM352.491 415.665V416.436H346.997V415.665H352.491ZM355.113 422.872C354.745 422.872 354.411 422.81 354.112 422.686C353.816 422.559 353.56 422.382 353.345 422.154C353.134 421.926 352.971 421.656 352.857 421.344C352.743 421.031 352.686 420.689 352.686 420.318V420.113C352.686 419.683 352.749 419.301 352.876 418.966C353.003 418.627 353.176 418.341 353.394 418.106C353.612 417.872 353.859 417.694 354.136 417.574C354.413 417.454 354.699 417.393 354.996 417.393C355.373 417.393 355.699 417.458 355.972 417.589C356.249 417.719 356.475 417.901 356.651 418.135C356.827 418.367 356.957 418.64 357.041 418.956C357.126 419.268 357.168 419.61 357.168 419.981V420.386H353.223V419.649H356.265V419.581C356.252 419.346 356.203 419.119 356.119 418.897C356.037 418.676 355.907 418.494 355.728 418.35C355.549 418.207 355.305 418.135 354.996 418.135C354.79 418.135 354.602 418.179 354.429 418.267C354.257 418.352 354.108 418.479 353.985 418.648C353.861 418.817 353.765 419.024 353.697 419.268C353.628 419.512 353.594 419.794 353.594 420.113V420.318C353.594 420.569 353.628 420.805 353.697 421.026C353.768 421.244 353.871 421.436 354.004 421.602C354.141 421.768 354.305 421.899 354.497 421.993C354.693 422.087 354.914 422.135 355.162 422.135C355.481 422.135 355.751 422.069 355.972 421.939C356.193 421.809 356.387 421.635 356.553 421.417L357.1 421.851C356.986 422.024 356.841 422.188 356.665 422.344C356.49 422.501 356.273 422.628 356.016 422.725C355.762 422.823 355.461 422.872 355.113 422.872ZM358.833 417.491L359.991 419.415L361.163 417.491H362.222L360.494 420.098L362.276 422.774H361.231L360.01 420.792L358.789 422.774H357.74L359.517 420.098L357.793 417.491H358.833ZM365.396 417.491V418.184H362.539V417.491H365.396ZM363.506 416.207H364.41V421.466C364.41 421.645 364.437 421.78 364.493 421.871C364.548 421.962 364.62 422.022 364.707 422.052C364.795 422.081 364.89 422.095 364.991 422.095C365.066 422.095 365.144 422.089 365.225 422.076C365.31 422.06 365.373 422.047 365.415 422.037L365.42 422.774C365.349 422.797 365.254 422.818 365.137 422.838C365.023 422.86 364.885 422.872 364.722 422.872C364.501 422.872 364.297 422.828 364.112 422.74C363.926 422.652 363.778 422.506 363.667 422.301C363.56 422.092 363.506 421.812 363.506 421.461V416.207Z" fill="#A3A3A3"/>
<path d="M472.387 415.665V422.774H471.459V415.665H472.387ZM474.672 415.665V416.436H469.179V415.665H474.672ZM477.294 422.872C476.927 422.872 476.593 422.81 476.293 422.686C475.997 422.559 475.742 422.382 475.527 422.154C475.315 421.926 475.152 421.656 475.039 421.344C474.925 421.031 474.868 420.689 474.868 420.318V420.113C474.868 419.683 474.931 419.301 475.058 418.966C475.185 418.627 475.358 418.341 475.576 418.106C475.794 417.872 476.041 417.694 476.318 417.574C476.594 417.454 476.881 417.393 477.177 417.393C477.555 417.393 477.88 417.458 478.154 417.589C478.43 417.719 478.657 417.901 478.832 418.135C479.008 418.367 479.138 418.64 479.223 418.956C479.308 419.268 479.35 419.61 479.35 419.981V420.386H475.405V419.649H478.447V419.581C478.434 419.346 478.385 419.119 478.3 418.897C478.219 418.676 478.089 418.494 477.91 418.35C477.731 418.207 477.486 418.135 477.177 418.135C476.972 418.135 476.783 418.179 476.611 418.267C476.438 418.352 476.29 418.479 476.166 418.648C476.043 418.817 475.947 419.024 475.878 419.268C475.81 419.512 475.776 419.794 475.776 420.113V420.318C475.776 420.569 475.81 420.805 475.878 421.026C475.95 421.244 476.053 421.436 476.186 421.602C476.323 421.768 476.487 421.899 476.679 421.993C476.874 422.087 477.096 422.135 477.343 422.135C477.662 422.135 477.932 422.069 478.154 421.939C478.375 421.809 478.569 421.635 478.735 421.417L479.282 421.851C479.168 422.024 479.023 422.188 478.847 422.344C478.671 422.501 478.455 422.628 478.198 422.725C477.944 422.823 477.643 422.872 477.294 422.872ZM481.015 417.491L482.172 419.415L483.344 417.491H484.404L482.675 420.098L484.457 422.774H483.413L482.192 420.792L480.971 422.774H479.921L481.699 420.098L479.975 417.491H481.015ZM487.578 417.491V418.184H484.721V417.491H487.578ZM485.688 416.207H486.591V421.466C486.591 421.645 486.619 421.78 486.674 421.871C486.73 421.962 486.801 422.022 486.889 422.052C486.977 422.081 487.071 422.095 487.172 422.095C487.247 422.095 487.325 422.089 487.407 422.076C487.491 422.06 487.555 422.047 487.597 422.037L487.602 422.774C487.53 422.797 487.436 422.818 487.319 422.838C487.205 422.86 487.067 422.872 486.904 422.872C486.682 422.872 486.479 422.828 486.293 422.74C486.108 422.652 485.96 422.506 485.849 422.301C485.742 422.092 485.688 421.812 485.688 421.461V416.207Z" fill="#A3A3A3"/>
<path d="M584.461 415.665V422.774H583.534V415.665H584.461ZM586.747 415.665V416.436H581.253V415.665H586.747ZM589.369 422.872C589.001 422.872 588.667 422.81 588.368 422.686C588.071 422.559 587.816 422.382 587.601 422.154C587.389 421.926 587.227 421.656 587.113 421.344C586.999 421.031 586.942 420.689 586.942 420.318V420.113C586.942 419.683 587.005 419.301 587.132 418.966C587.259 418.627 587.432 418.341 587.65 418.106C587.868 417.872 588.115 417.694 588.392 417.574C588.669 417.454 588.955 417.393 589.251 417.393C589.629 417.393 589.955 417.458 590.228 417.589C590.505 417.719 590.731 417.901 590.907 418.135C591.082 418.367 591.213 418.64 591.297 418.956C591.382 419.268 591.424 419.61 591.424 419.981V420.386H587.479V419.649H590.521V419.581C590.508 419.346 590.459 419.119 590.374 418.897C590.293 418.676 590.163 418.494 589.984 418.35C589.805 418.207 589.561 418.135 589.251 418.135C589.046 418.135 588.858 418.179 588.685 418.267C588.512 418.352 588.364 418.479 588.241 418.648C588.117 418.817 588.021 419.024 587.953 419.268C587.884 419.512 587.85 419.794 587.85 420.113V420.318C587.85 420.569 587.884 420.805 587.953 421.026C588.024 421.244 588.127 421.436 588.26 421.602C588.397 421.768 588.561 421.899 588.753 421.993C588.949 422.087 589.17 422.135 589.417 422.135C589.736 422.135 590.007 422.069 590.228 421.939C590.449 421.809 590.643 421.635 590.809 421.417L591.356 421.851C591.242 422.024 591.097 422.188 590.921 422.344C590.746 422.501 590.529 422.628 590.272 422.725C590.018 422.823 589.717 422.872 589.369 422.872ZM593.089 417.491L594.247 419.415L595.418 417.491H596.478L594.749 420.098L596.532 422.774H595.487L594.266 420.792L593.045 422.774H591.996L593.773 420.098L592.049 417.491H593.089ZM599.652 417.491V418.184H596.795V417.491H599.652ZM597.762 416.207H598.665V421.466C598.665 421.645 598.693 421.78 598.748 421.871C598.804 421.962 598.875 422.022 598.963 422.052C599.051 422.081 599.146 422.095 599.247 422.095C599.321 422.095 599.4 422.089 599.481 422.076C599.566 422.06 599.629 422.047 599.671 422.037L599.676 422.774C599.605 422.797 599.51 422.818 599.393 422.838C599.279 422.86 599.141 422.872 598.978 422.872C598.757 422.872 598.553 422.828 598.368 422.74C598.182 422.652 598.034 422.506 597.923 422.301C597.816 422.092 597.762 421.812 597.762 421.461V416.207Z" fill="#A3A3A3"/>
<path d="M100.993 405.221V406.305C100.993 406.887 100.941 407.379 100.837 407.779C100.733 408.18 100.583 408.502 100.388 408.746C100.193 408.99 99.9566 409.168 99.6799 409.278C99.4065 409.386 99.0973 409.44 98.7522 409.44C98.4788 409.44 98.2265 409.405 97.9954 409.337C97.7643 409.269 97.5559 409.16 97.3704 409.01C97.1881 408.857 97.0318 408.658 96.9016 408.414C96.7714 408.17 96.6721 407.874 96.6038 407.526C96.5354 407.177 96.5012 406.77 96.5012 406.305V405.221C96.5012 404.638 96.5533 404.15 96.6575 403.756C96.7649 403.362 96.9163 403.046 97.1116 402.809C97.3069 402.568 97.5413 402.395 97.8147 402.291C98.0914 402.187 98.4006 402.135 98.7424 402.135C99.0191 402.135 99.273 402.169 99.5042 402.237C99.7385 402.303 99.9469 402.408 100.129 402.555C100.311 402.698 100.466 402.89 100.593 403.131C100.723 403.369 100.823 403.66 100.891 404.005C100.959 404.35 100.993 404.755 100.993 405.221ZM100.085 406.451V405.069C100.085 404.75 100.066 404.47 100.027 404.23C99.9908 403.985 99.9371 403.777 99.8655 403.605C99.7939 403.432 99.7027 403.292 99.5921 403.185C99.4846 403.077 99.3593 402.999 99.2161 402.95C99.0761 402.898 98.9182 402.872 98.7424 402.872C98.5276 402.872 98.3372 402.913 98.1712 402.994C98.0051 403.072 97.8652 403.198 97.7512 403.37C97.6406 403.543 97.5559 403.769 97.4973 404.049C97.4387 404.329 97.4094 404.669 97.4094 405.069V406.451C97.4094 406.77 97.4273 407.052 97.4631 407.296C97.5022 407.54 97.5592 407.752 97.634 407.931C97.7089 408.107 97.8001 408.251 97.9075 408.365C98.0149 408.479 98.1386 408.564 98.2786 408.619C98.4218 408.671 98.5797 408.697 98.7522 408.697C98.9736 408.697 99.1672 408.655 99.3333 408.57C99.4993 408.486 99.6376 408.354 99.7483 408.175C99.8622 407.993 99.9469 407.76 100.002 407.477C100.058 407.19 100.085 406.848 100.085 406.451Z" fill="#A3A3A3"/>
<path d="M95.564 335.239V335.982H90.9107V335.332L93.2398 332.739C93.5262 332.42 93.7476 332.15 93.9038 331.929C94.0633 331.704 94.174 331.504 94.2359 331.328C94.301 331.149 94.3335 330.967 94.3335 330.781C94.3335 330.547 94.2847 330.335 94.187 330.147C94.0926 329.955 93.9527 329.802 93.7671 329.688C93.5816 329.574 93.357 329.517 93.0933 329.517C92.7775 329.517 92.5139 329.579 92.3023 329.702C92.0939 329.823 91.9377 329.992 91.8335 330.21C91.7293 330.428 91.6773 330.679 91.6773 330.962H90.7739C90.7739 330.562 90.8618 330.195 91.0376 329.863C91.2134 329.531 91.4738 329.268 91.8189 329.072C92.1639 328.874 92.5887 328.775 93.0933 328.775C93.5425 328.775 93.9266 328.854 94.2456 329.014C94.5646 329.17 94.8088 329.391 94.978 329.678C95.1506 329.961 95.2368 330.293 95.2368 330.674C95.2368 330.882 95.201 331.094 95.1294 331.309C95.0611 331.52 94.965 331.732 94.8413 331.943C94.7209 332.155 94.5793 332.363 94.4165 332.568C94.257 332.774 94.0861 332.975 93.9038 333.174L91.9995 335.239H95.564ZM97.6734 332.598L96.9507 332.412L97.3071 328.872H100.955V329.707H98.0737L97.8589 331.641C97.9891 331.566 98.1535 331.496 98.3521 331.431C98.5539 331.366 98.785 331.333 99.0454 331.333C99.3742 331.333 99.6688 331.39 99.9292 331.504C100.19 331.615 100.411 331.774 100.593 331.983C100.779 332.191 100.92 332.442 101.018 332.734C101.116 333.027 101.165 333.355 101.165 333.716C101.165 334.058 101.117 334.372 101.023 334.658C100.932 334.945 100.793 335.195 100.608 335.41C100.422 335.622 100.188 335.786 99.9048 335.903C99.6249 336.021 99.2945 336.079 98.9136 336.079C98.6271 336.079 98.3553 336.04 98.0982 335.962C97.8443 335.881 97.6164 335.759 97.4146 335.596C97.216 335.43 97.0532 335.225 96.9263 334.981C96.8026 334.733 96.7245 334.443 96.6919 334.111H97.5513C97.5904 334.378 97.6685 334.603 97.7857 334.785C97.9029 334.968 98.0558 335.106 98.2446 335.2C98.4367 335.291 98.6597 335.337 98.9136 335.337C99.1284 335.337 99.3189 335.3 99.4849 335.225C99.6509 335.15 99.7909 335.042 99.9048 334.902C100.019 334.762 100.105 334.593 100.164 334.395C100.225 334.196 100.256 333.973 100.256 333.726C100.256 333.501 100.225 333.293 100.164 333.101C100.102 332.909 100.009 332.741 99.8853 332.598C99.7648 332.455 99.6167 332.344 99.4409 332.266C99.2652 332.184 99.0633 332.144 98.8355 332.144C98.5327 332.144 98.3032 332.184 98.147 332.266C97.994 332.347 97.8361 332.458 97.6734 332.598Z" fill="#A3A3A3"/>
<path d="M92.0484 260.271L91.3257 260.085L91.6821 256.545H95.3296V257.38H92.4487L92.2339 259.313C92.3641 259.239 92.5285 259.169 92.7271 259.104C92.9289 259.038 93.16 259.006 93.4204 259.006C93.7492 259.006 94.0438 259.063 94.3042 259.177C94.5646 259.287 94.786 259.447 94.9683 259.655C95.1538 259.864 95.2954 260.114 95.3931 260.407C95.4907 260.7 95.5396 261.027 95.5396 261.389C95.5396 261.73 95.4924 262.045 95.398 262.331C95.3068 262.618 95.1685 262.868 94.9829 263.083C94.7974 263.295 94.563 263.459 94.2798 263.576C93.9999 263.693 93.6695 263.752 93.2886 263.752C93.0021 263.752 92.7303 263.713 92.4732 263.635C92.2193 263.553 91.9914 263.431 91.7896 263.269C91.591 263.103 91.4282 262.897 91.3013 262.653C91.1776 262.406 91.0995 262.116 91.0669 261.784H91.9263C91.9654 262.051 92.0435 262.276 92.1607 262.458C92.2779 262.64 92.4308 262.779 92.6196 262.873C92.8117 262.964 93.0347 263.01 93.2886 263.01C93.5034 263.01 93.6939 262.972 93.8599 262.897C94.0259 262.823 94.1659 262.715 94.2798 262.575C94.3937 262.435 94.48 262.266 94.5386 262.067C94.6004 261.869 94.6314 261.646 94.6314 261.398C94.6314 261.174 94.6004 260.965 94.5386 260.773C94.4767 260.581 94.384 260.414 94.2603 260.271C94.1398 260.127 93.9917 260.017 93.8159 259.938C93.6402 259.857 93.4383 259.816 93.2105 259.816C92.9077 259.816 92.6782 259.857 92.522 259.938C92.369 260.02 92.2111 260.131 92.0484 260.271ZM100.994 259.533V260.617C100.994 261.2 100.942 261.691 100.837 262.092C100.733 262.492 100.584 262.814 100.388 263.059C100.193 263.303 99.9569 263.48 99.6802 263.591C99.4068 263.698 99.0975 263.752 98.7525 263.752C98.479 263.752 98.2267 263.718 97.9956 263.649C97.7645 263.581 97.5562 263.472 97.3706 263.322C97.1883 263.169 97.0321 262.971 96.9019 262.727C96.7717 262.482 96.6724 262.186 96.604 261.838C96.5357 261.49 96.5015 261.083 96.5015 260.617V259.533C96.5015 258.951 96.5536 258.462 96.6577 258.068C96.7652 257.674 96.9165 257.359 97.1118 257.121C97.3071 256.88 97.5415 256.708 97.815 256.604C98.0917 256.499 98.4009 256.447 98.7427 256.447C99.0194 256.447 99.2733 256.481 99.5044 256.55C99.7388 256.615 99.9471 256.721 100.129 256.867C100.312 257.01 100.466 257.202 100.593 257.443C100.723 257.681 100.823 257.972 100.891 258.317C100.959 258.662 100.994 259.068 100.994 259.533ZM100.085 260.764V259.382C100.085 259.063 100.066 258.783 100.027 258.542C99.9911 258.298 99.9374 258.09 99.8657 257.917C99.7941 257.744 99.703 257.604 99.5923 257.497C99.4849 257.39 99.3596 257.312 99.2163 257.263C99.0764 257.211 98.9185 257.185 98.7427 257.185C98.5279 257.185 98.3374 257.225 98.1714 257.307C98.0054 257.385 97.8654 257.51 97.7515 257.683C97.6408 257.855 97.5562 258.081 97.4976 258.361C97.439 258.641 97.4097 258.981 97.4097 259.382V260.764C97.4097 261.083 97.4276 261.364 97.4634 261.608C97.5025 261.853 97.5594 262.064 97.6343 262.243C97.7092 262.419 97.8003 262.564 97.9077 262.678C98.0152 262.792 98.1389 262.876 98.2788 262.932C98.4221 262.984 98.5799 263.01 98.7525 263.01C98.9738 263.01 99.1675 262.967 99.3335 262.883C99.4995 262.798 99.6379 262.666 99.7486 262.487C99.8625 262.305 99.9471 262.072 100.002 261.789C100.058 261.503 100.085 261.161 100.085 260.764Z" fill="#A3A3A3"/>
<path d="M95.5005 184.218V184.726L92.5562 191.327H91.604L94.5435 184.96H90.6958V184.218H95.5005ZM97.6734 187.943L96.9507 187.758L97.3071 184.218H100.955V185.053H98.0737L97.8589 186.986C97.9891 186.911 98.1535 186.841 98.3521 186.776C98.5539 186.711 98.785 186.679 99.0454 186.679C99.3742 186.679 99.6688 186.736 99.9292 186.85C100.19 186.96 100.411 187.12 100.593 187.328C100.779 187.536 100.92 187.787 101.018 188.08C101.116 188.373 101.165 188.7 101.165 189.062C101.165 189.403 101.117 189.717 101.023 190.004C100.932 190.29 100.793 190.541 100.608 190.756C100.422 190.967 100.188 191.132 99.9048 191.249C99.6249 191.366 99.2945 191.425 98.9136 191.425C98.6271 191.425 98.3553 191.386 98.0982 191.308C97.8443 191.226 97.6164 191.104 97.4146 190.941C97.216 190.775 97.0532 190.57 96.9263 190.326C96.8026 190.079 96.7245 189.789 96.6919 189.457H97.5513C97.5904 189.724 97.6685 189.949 97.7857 190.131C97.9029 190.313 98.0558 190.451 98.2446 190.546C98.4367 190.637 98.6597 190.683 98.9136 190.683C99.1284 190.683 99.3189 190.645 99.4849 190.57C99.6509 190.495 99.7909 190.388 99.9048 190.248C100.019 190.108 100.105 189.939 100.164 189.74C100.225 189.542 100.256 189.319 100.256 189.071C100.256 188.847 100.225 188.638 100.164 188.446C100.102 188.254 100.009 188.087 99.8853 187.943C99.7648 187.8 99.6167 187.689 99.4409 187.611C99.2652 187.53 99.0633 187.489 98.8355 187.489C98.5327 187.489 98.3032 187.53 98.147 187.611C97.994 187.693 97.8361 187.803 97.6734 187.943Z" fill="#A3A3A3"/>
<path d="M88.2497 111.852V119H87.3464V112.979L85.5251 113.644V112.828L88.1081 111.852H88.2497ZM95.3689 114.879V115.963C95.3689 116.546 95.3168 117.037 95.2126 117.438C95.1085 117.838 94.9587 118.16 94.7634 118.404C94.5681 118.648 94.3321 118.826 94.0554 118.937C93.782 119.044 93.4727 119.098 93.1277 119.098C92.8542 119.098 92.602 119.063 92.3708 118.995C92.1397 118.927 91.9314 118.818 91.7458 118.668C91.5635 118.515 91.4073 118.316 91.2771 118.072C91.1469 117.828 91.0476 117.532 90.9792 117.184C90.9109 116.835 90.8767 116.428 90.8767 115.963V114.879C90.8767 114.296 90.9288 113.808 91.0329 113.414C91.1404 113.02 91.2917 112.704 91.487 112.467C91.6824 112.226 91.9167 112.053 92.1902 111.949C92.4669 111.845 92.7761 111.793 93.1179 111.793C93.3946 111.793 93.6485 111.827 93.8796 111.896C94.114 111.961 94.3223 112.066 94.5046 112.213C94.6869 112.356 94.8415 112.548 94.9685 112.789C95.0987 113.027 95.198 113.318 95.2663 113.663C95.3347 114.008 95.3689 114.413 95.3689 114.879ZM94.4607 116.109V114.728C94.4607 114.409 94.4411 114.129 94.4021 113.888C94.3663 113.644 94.3126 113.435 94.241 113.263C94.1693 113.09 94.0782 112.95 93.9675 112.843C93.8601 112.735 93.7348 112.657 93.5915 112.608C93.4516 112.556 93.2937 112.53 93.1179 112.53C92.9031 112.53 92.7126 112.571 92.5466 112.652C92.3806 112.73 92.2406 112.856 92.1267 113.028C92.016 113.201 91.9314 113.427 91.8728 113.707C91.8142 113.987 91.7849 114.327 91.7849 114.728V116.109C91.7849 116.428 91.8028 116.71 91.8386 116.954C91.8777 117.198 91.9346 117.41 92.0095 117.589C92.0844 117.765 92.1755 117.91 92.2829 118.023C92.3904 118.137 92.5141 118.222 92.654 118.277C92.7973 118.329 92.9551 118.355 93.1277 118.355C93.349 118.355 93.5427 118.313 93.7087 118.229C93.8747 118.144 94.0131 118.012 94.1238 117.833C94.2377 117.651 94.3223 117.418 94.3777 117.135C94.433 116.848 94.4607 116.507 94.4607 116.109ZM100.994 114.879V115.963C100.994 116.546 100.942 117.037 100.838 117.438C100.733 117.838 100.584 118.16 100.388 118.404C100.193 118.648 99.9571 118.826 99.6804 118.937C99.407 119.044 99.0977 119.098 98.7527 119.098C98.4792 119.098 98.227 119.063 97.9958 118.995C97.7647 118.927 97.5564 118.818 97.3708 118.668C97.1885 118.515 97.0323 118.316 96.9021 118.072C96.7719 117.828 96.6726 117.532 96.6042 117.184C96.5359 116.835 96.5017 116.428 96.5017 115.963V114.879C96.5017 114.296 96.5538 113.808 96.6579 113.414C96.7654 113.02 96.9167 112.704 97.112 112.467C97.3074 112.226 97.5417 112.053 97.8152 111.949C98.0919 111.845 98.4011 111.793 98.7429 111.793C99.0196 111.793 99.2735 111.827 99.5046 111.896C99.739 111.961 99.9473 112.066 100.13 112.213C100.312 112.356 100.467 112.548 100.593 112.789C100.724 113.027 100.823 113.318 100.891 113.663C100.96 114.008 100.994 114.413 100.994 114.879ZM100.086 116.109V114.728C100.086 114.409 100.066 114.129 100.027 113.888C99.9913 113.644 99.9376 113.435 99.866 113.263C99.7943 113.09 99.7032 112.95 99.5925 112.843C99.4851 112.735 99.3598 112.657 99.2165 112.608C99.0766 112.556 98.9187 112.53 98.7429 112.53C98.5281 112.53 98.3376 112.571 98.1716 112.652C98.0056 112.73 97.8656 112.856 97.7517 113.028C97.641 113.201 97.5564 113.427 97.4978 113.707C97.4392 113.987 97.4099 114.327 97.4099 114.728V116.109C97.4099 116.428 97.4278 116.71 97.4636 116.954C97.5027 117.198 97.5596 117.41 97.6345 117.589C97.7094 117.765 97.8005 117.91 97.9079 118.023C98.0154 118.137 98.1391 118.222 98.279 118.277C98.4223 118.329 98.5801 118.355 98.7527 118.355C98.974 118.355 99.1677 118.313 99.3337 118.229C99.4997 118.144 99.6381 118.012 99.7488 117.833C99.8627 117.651 99.9473 117.418 100.003 117.135C100.058 116.848 100.086 116.507 100.086 116.109Z" fill="#A3A3A3"/>
<path d="M111.897 210.979C111.897 210.979 185.206 144.2 234.079 144.2C282.951 144.2 307.387 215.044 356.26 263.241C405.133 311.437 429.569 385.184 478.441 385.184C527.314 385.184 600.623 240.013 600.623 240.013" stroke="#A6CEE3" stroke-width="2"/>
<path d="M111.898 215.391C110.802 215.391 109.751 214.956 108.976 214.181C108.2 213.406 107.765 212.355 107.765 211.259C107.764 210.163 108.199 209.112 108.974 208.337C109.749 207.561 110.8 207.126 111.896 207.125C112.992 207.124 114.043 207.559 114.818 208.334C115.594 209.108 116.03 210.159 116.031 211.255C116.031 212.351 115.597 213.402 114.823 214.178C114.048 214.954 112.998 215.39 111.902 215.391H111.898Z" fill="#A6CEE3"/>
<path d="M233.82 148.23C232.725 148.23 231.673 147.795 230.898 147.02C230.123 146.245 229.688 145.194 229.688 144.098C229.687 143.002 230.122 141.951 230.897 141.176C231.672 140.4 232.722 139.965 233.818 139.964C234.914 139.964 235.966 140.398 236.741 141.173C237.517 141.947 237.953 142.998 237.953 144.094C237.954 145.19 237.52 146.241 236.745 147.017C235.971 147.793 234.921 148.229 233.825 148.23L233.82 148.23Z" fill="#A6CEE3"/>
<path d="M355.743 267.053C354.647 267.053 353.596 266.618 352.821 265.843C352.046 265.068 351.611 264.017 351.61 262.921C351.61 261.825 352.045 260.774 352.82 259.999C353.594 259.224 354.645 258.788 355.741 258.787C356.837 258.787 357.889 259.222 358.664 259.996C359.439 260.771 359.875 261.821 359.876 262.917C359.877 264.013 359.443 265.065 358.668 265.84C357.894 266.616 356.843 267.052 355.747 267.053H355.743Z" fill="#A6CEE3"/>
<path d="M477.666 388.976C476.57 388.976 475.519 388.541 474.744 387.766C473.969 386.991 473.533 385.94 473.533 384.844C473.533 383.748 473.968 382.697 474.743 381.922C475.517 381.147 476.568 380.711 477.664 380.71C478.76 380.71 479.811 381.145 480.587 381.919C481.362 382.693 481.798 383.744 481.799 384.84C481.8 385.936 481.365 386.988 480.591 387.763C479.817 388.539 478.766 388.975 477.67 388.976H477.666Z" fill="#A6CEE3"/>
<path d="M600.622 244.322C599.526 244.322 598.475 243.887 597.7 243.112C596.925 242.337 596.49 241.286 596.489 240.19C596.489 239.094 596.924 238.043 597.699 237.268C598.473 236.492 599.524 236.056 600.62 236.056C601.716 236.055 602.767 236.49 603.543 237.265C604.318 238.039 604.754 239.09 604.755 240.186C604.756 241.282 604.322 242.333 603.547 243.109C602.773 243.884 601.722 244.321 600.626 244.322H600.622Z" fill="#A6CEE3"/>
<defs>
<filter id="filter0_bdii_54_19" x="0" y="-4.26133" width="708" height="512.261" filterUnits="userSpaceOnUse" color-interpolation-filters="sRGB">
<feFlood flood-opacity="0" result="BackgroundImageFix"/>
<feGaussianBlur in="BackgroundImageFix" stdDeviation="23.6307"/>
<feComposite in2="SourceAlpha" operator="in" result="effect1_backgroundBlur_54_19"/>
<feColorMatrix in="SourceAlpha" type="matrix" values="0 0 0 0 0 0 0 0 0 0 0 0 0 0 0 0 0 0 127 0" result="hardAlpha"/>
<feOffset dx="3" dy="11"/>
<feGaussianBlur stdDeviation="27"/>
<feComposite in2="hardAlpha" operator="out"/>
<feColorMatrix type="matrix" values="0 0 0 0 0.575 0 0 0 0 0.575 0 0 0 0 0.575 0 0 0 0.25 0"/>
<feBlend mode="normal" in2="effect1_backgroundBlur_54_19" result="effect2_dropShadow_54_19"/>
<feBlend mode="normal" in="SourceGraphic" in2="effect2_dropShadow_54_19" result="shape"/>
<feColorMatrix in="SourceAlpha" type="matrix" values="0 0 0 0 0 0 0 0 0 0 0 0 0 0 0 0 0 0 127 0" result="hardAlpha"/>
<feOffset dx="-31.9333" dy="31.9333"/>
<feGaussianBlur stdDeviation="15.9667"/>
<feComposite in2="hardAlpha" operator="arithmetic" k2="-1" k3="1"/>
<feColorMatrix type="matrix" values="0 0 0 0 1 0 0 0 0 1 0 0 0 0 1 0 0 0 0.12 0"/>
<feBlend mode="normal" in2="shape" result="effect3_innerShadow_54_19"/>
<feColorMatrix in="SourceAlpha" type="matrix" values="0 0 0 0 0 0 0 0 0 0 0 0 0 0 0 0 0 0 127 0" result="hardAlpha"/>
<feOffset dx="31.9333" dy="-31.9333"/>
<feGaussianBlur stdDeviation="15.9667"/>
<feComposite in2="hardAlpha" operator="arithmetic" k2="-1" k3="1"/>
<feColorMatrix type="matrix" values="0 0 0 0 0.706167 0 0 0 0 0.706167 0 0 0 0 0.706167 0 0 0 0.12 0"/>
<feBlend mode="normal" in2="effect3_innerShadow_54_19" result="effect4_innerShadow_54_19"/>
</filter>
</defs>
</svg>
