<svg width="72" height="56" viewBox="0 0 72 56" fill="none" xmlns="http://www.w3.org/2000/svg">
<path fill-rule="evenodd" clip-rule="evenodd" d="M5.09828 11.9811C5.42314 12.2084 5.61831 12.525 5.68861 12.9335C5.76199 13.3141 5.68547 13.6676 5.4618 13.9949C4.67873 15.1266 4.16373 16.391 3.92141 17.7885L3.87737 18.2889L3.85599 18.4122C3.54174 20.8695 4.11214 23.1457 5.56724 25.2404C7.13563 27.4957 9.25103 28.86 11.9099 29.3319C14.5718 29.8042 17.0317 29.252 19.292 27.676C21.524 26.0952 22.8772 23.9486 23.3476 21.236C23.8133 18.5502 23.2613 16.0798 21.6939 13.8252L21.3506 13.3831L21.1665 16.8665C21.1539 17.2597 20.9968 17.5988 20.6942 17.8844C20.3935 18.1697 20.0508 18.292 19.6664 18.2528C19.2768 18.2398 18.9406 18.0814 18.6567 17.7769C18.4006 17.4773 18.2787 17.13 18.2911 16.7374L18.5883 10.1811C18.6329 9.76525 18.8072 9.40138 19.1134 9.0881C19.4645 8.83953 19.8565 8.75424 20.2911 8.83137L20.3723 8.84579L26.6438 9.23828C27.0285 9.27879 27.3512 9.43416 27.612 9.7068C27.8948 10.0111 28.015 10.3717 27.9705 10.787C27.9579 11.1802 27.803 11.5061 27.5071 11.7639C27.2047 12.0489 26.8481 12.17 26.436 12.1247L23.9028 11.9718L24.0362 12.1651C26.0741 15.0966 26.7948 18.289 26.1961 21.742C25.5832 25.2764 23.8289 28.0439 20.9358 30.0441C18.0332 32.0987 14.858 32.8207 11.4093 32.2087C7.98896 31.6017 5.25935 29.8318 3.22023 26.9002C1.35071 24.2805 0.613781 21.3534 1.0078 18.119L1.06744 17.282C1.38104 15.4736 2.05824 13.8277 3.09862 12.3468C3.32409 12.0192 3.63719 11.8212 4.04162 11.7517C4.42285 11.6775 4.77395 11.7534 5.09814 11.9812L5.09828 11.9811ZM34.0684 0.812206C35.4811 0.412769 36.8028 0.619548 38.0329 1.43126C39.2506 2.32528 40.0735 3.47364 40.5 4.87688L43.0943 13.6408C43.6923 13.0968 44.3172 12.7283 44.9654 12.5325C46.4362 12.1156 47.7827 12.341 49.0037 13.2066C49.6036 13.6239 50.1212 14.1106 50.5551 14.6681C51.1175 14.0055 51.8553 13.543 52.7686 13.2813C54.1042 12.8404 55.4289 13.0329 56.7421 13.8594C57.8637 14.6518 58.6592 15.7115 59.1299 17.0367C59.7279 16.4927 60.3511 16.124 61.001 15.9284C62.4231 15.4751 63.7474 15.667 64.9727 16.5062C66.2029 17.3179 67.0256 18.467 67.4398 19.9518C70.0566 26.9685 71.5497 33.6876 71.9203 40.108L71.906 40.19L71.9185 42.7762C71.9333 43.1737 71.805 43.5185 71.5297 43.8089C71.229 44.0942 70.8797 44.2444 70.486 44.259C70.0922 44.2737 69.7524 44.143 69.4637 43.866C69.1809 43.5617 69.0315 43.2107 69.0169 42.8121L69.0099 40.1844C68.6748 34.052 67.2427 27.6268 64.7124 20.908L64.6851 20.8186C64.4617 20.0165 64.0356 19.4037 63.4101 18.9823C62.9085 18.6391 62.3932 18.5477 61.8624 18.7076C61.3588 18.8724 60.9395 19.2643 60.6091 19.883C60.3504 20.4021 60.3259 21.0332 60.532 21.7761L60.5664 21.8247L62.5059 28.3123C62.606 28.6977 62.5692 29.0717 62.3948 29.4362C62.1978 29.7683 61.9053 29.9995 61.5193 30.1284C61.1373 30.2302 60.7798 30.1946 60.4472 30.0226C60.0908 29.8181 59.8472 29.5208 59.7192 29.131L56.4561 18.172C56.231 17.3697 55.7959 16.7416 55.1467 16.2871C54.6405 15.9709 54.1375 15.8964 53.6329 16.061C53.0316 16.293 52.6045 16.6557 52.3523 17.147C52.1298 17.7855 52.0953 18.4709 52.2486 19.2044L54.4063 26.366C54.5081 26.7517 54.4571 27.1232 54.2554 27.4828C54.085 27.8202 53.8057 28.0532 53.4203 28.1822C53.0383 28.284 52.6808 28.2484 52.3464 28.0761C51.9901 27.8716 51.7482 27.5746 51.6185 27.1845L48.6765 17.5114C48.4578 16.6818 48.034 16.0563 47.4085 15.6339C46.907 15.2907 46.3674 15.1808 45.7868 15.3035C45.2816 15.468 44.8937 15.8507 44.6219 16.4526C44.3709 17.086 44.3499 17.7744 44.5579 18.517L46.6131 25.067C46.7085 25.4793 46.6716 25.8545 46.502 26.1909C46.3271 26.5547 46.0453 26.8014 45.6598 26.9309C45.2511 27.028 44.8789 26.9898 44.5445 26.8175C44.1834 26.6406 43.9392 26.3567 43.8112 25.9669L41.8045 19.3831L41.7702 19.3344L37.7469 5.74114C37.4678 4.92917 37.0309 4.3008 36.4375 3.85621C35.9264 3.5681 35.4088 3.48985 34.8826 3.62283C34.286 3.82784 33.8862 4.20844 33.6761 4.76456C33.4002 5.39351 33.3963 6.14167 33.666 7.00813L42.9439 37.5056C43.1259 38.074 42.9815 38.5856 42.5111 39.0388C41.9916 39.4549 41.4626 39.5165 40.9243 39.223L29.3127 33.5611C28.3568 33.1095 27.3321 33.605 26.2417 35.0498C25.56 35.9176 25.9535 37.0323 27.425 38.3947C29.4229 40.2741 31.4659 42.0492 33.554 43.7189C35.4316 45.1538 38.3433 46.9271 42.2861 49.0394C46.0077 51.1402 48.5276 52.5053 49.8456 53.1346C50.2067 53.3115 50.4682 53.5837 50.6293 53.9516C50.7615 54.3137 50.7412 54.6771 50.5644 55.0417C50.4262 55.3559 50.2161 55.6011 49.9332 55.7773C49.6295 55.9208 49.3259 55.9662 49.0288 55.9135L48.6754 55.7662C47.199 55.0804 44.6121 53.7041 40.9123 51.6349C36.7211 49.3378 33.686 47.4718 31.8084 46.0369C29.6421 44.325 27.5245 42.494 25.4571 40.5461C23.9129 39.1137 23.1038 37.6568 23.0241 36.1745C22.9497 35.1447 23.2441 34.1799 23.9031 33.2802C25.1002 31.713 26.3772 30.796 27.7382 30.5292C28.6928 30.3599 29.6328 30.4984 30.563 30.946L39.1958 35.1472L30.877 7.8279C30.4305 6.36386 30.4645 4.95857 30.979 3.60944C31.6215 2.17075 32.6506 1.23751 34.0678 0.812371L34.0684 0.812206Z" fill="white"/>
</svg>
