<svg width="76" height="81" viewBox="0 0 76 81" fill="none" xmlns="http://www.w3.org/2000/svg">
<path d="M41.5987 11.914C41.5987 11.5145 41.9229 11.192 42.32 11.192C42.7185 11.192 43.042 11.5151 43.042 11.914C43.042 12.313 42.719 12.6359 42.32 12.6359C41.9223 12.6359 41.5987 12.3135 41.5987 11.914Z" fill="white" stroke="white" stroke-width="5"/>
<path d="M9.50303 72.6399C9.50303 72.2404 9.82717 71.9179 10.2243 71.9179C10.6228 71.9179 10.9463 72.241 10.9463 72.6399C10.9463 73.0389 10.6233 73.3618 10.2243 73.3618C9.82659 73.3618 9.50303 73.0395 9.50303 72.6399Z" fill="white" stroke="white" stroke-width="5"/>
<path d="M2.31144 60.9926C2.31144 61.6308 1.7942 62.1487 1.15603 62.1487C0.517237 62.1487 0 61.6308 0 60.9926C0 60.3545 0.517237 59.8366 1.15603 59.8366C1.7942 59.8366 2.31144 60.3545 2.31144 60.9926Z" fill="white" stroke="white" stroke-width="5"/>
<path d="M6.93555 29.5183C6.93555 29.5183 7.37961 29.0736 8.00228 28.8069C8.20812 28.67 8.46717 28.5856 8.73807 28.5134C8.78149 28.5018 8.82522 28.4905 8.86909 28.4794L8.8758 28.4895C8.88201 28.5102 8.88961 28.5368 8.89882 28.5709C8.91527 28.6319 8.93189 28.6981 8.95488 28.7902L8.9571 28.7991L9.12268 29.4626L6.93555 29.5183ZM6.93555 29.5183C6.93555 29.5183 7.38023 29.9629 8.00228 30.2296L6.93555 29.5183ZM9.60239 31.8297C9.86907 32.4524 10.3138 32.8965 10.3138 32.8965C10.3138 32.8965 10.7584 32.4518 11.0251 31.8297H9.60239Z" fill="white" stroke="white" stroke-width="5"/>
<mask id="path-5-inside-1_21_115" fill="white">
<path d="M31.3849 10.1358C31.3849 10.1358 26.1394 9.69108 25.5167 9.4244C25.25 9.2464 24.894 9.15771 24.5386 9.06903C24.45 8.98034 24.3606 8.89103 24.272 8.80234C24.1833 8.44697 24.094 8.09098 23.9166 7.82429C23.6499 7.11293 23.2052 0 23.2052 0C23.2052 0 22.7605 7.11301 22.4939 7.73506C22.3159 8.00175 22.2272 8.35774 22.1385 8.71311L21.8718 8.9798C21.5164 9.06848 21.1604 9.15779 20.8938 9.33517C20.2711 9.60185 14.4922 10.0465 14.4922 10.0465C14.4922 10.0465 20.2711 10.4912 20.8938 10.7579C21.1604 10.9359 21.5164 11.0246 21.8718 11.1133C21.9605 11.202 22.0498 11.2913 22.1385 11.38C22.2272 11.7353 22.3165 12.0913 22.4939 12.358C22.7605 12.9807 23.2052 19.0263 23.2052 19.0263C23.2052 19.0263 23.6499 12.9807 23.9166 12.358C24.0946 12.0913 24.1833 11.7353 24.272 11.38C24.3606 11.2913 24.45 11.202 24.5386 11.1133C24.894 11.0246 25.25 10.9353 25.5167 10.7579C26.1394 10.5805 31.3849 10.1358 31.3849 10.1358V10.1358Z"/>
</mask>
<path d="M31.3849 10.1358C31.3849 10.1358 26.1394 9.69108 25.5167 9.4244C25.25 9.2464 24.894 9.15771 24.5386 9.06903C24.45 8.98034 24.3606 8.89103 24.272 8.80234C24.1833 8.44697 24.094 8.09098 23.9166 7.82429C23.6499 7.11293 23.2052 0 23.2052 0C23.2052 0 22.7605 7.11301 22.4939 7.73506C22.3159 8.00175 22.2272 8.35774 22.1385 8.71311L21.8718 8.9798C21.5164 9.06848 21.1604 9.15779 20.8938 9.33517C20.2711 9.60185 14.4922 10.0465 14.4922 10.0465C14.4922 10.0465 20.2711 10.4912 20.8938 10.7579C21.1604 10.9359 21.5164 11.0246 21.8718 11.1133C21.9605 11.202 22.0498 11.2913 22.1385 11.38C22.2272 11.7353 22.3165 12.0913 22.4939 12.358C22.7605 12.9807 23.2052 19.0263 23.2052 19.0263C23.2052 19.0263 23.6499 12.9807 23.9166 12.358C24.0946 12.0913 24.1833 11.7353 24.272 11.38C24.3606 11.2913 24.45 11.202 24.5386 11.1133C24.894 11.0246 25.25 10.9353 25.5167 10.7579C26.1394 10.5805 31.3849 10.1358 31.3849 10.1358V10.1358Z" fill="white"/>
<path d="M31.3849 10.1358H36.3849V5.54169L31.8073 5.15363L31.3849 10.1358ZM25.5167 9.4244L22.741 13.5832L23.1244 13.8391L23.5482 14.0206L25.5167 9.4244ZM24.5386 9.06903L21.0031 12.6046L21.9832 13.5846L23.328 13.9202L24.5386 9.06903ZM24.272 8.80234L19.4207 10.013L19.7564 11.3578L20.7364 12.3379L24.272 8.80234ZM23.9166 7.82429L19.2348 9.57946L19.436 10.1161L19.7534 10.5933L23.9166 7.82429ZM23.2052 0L28.1955 -0.311977L18.215 -0.311973L23.2052 0ZM22.4939 7.73506L26.6526 10.5108L26.908 10.1281L27.0893 9.70521L22.4939 7.73506ZM22.1385 8.71311L25.674 12.2487L26.6541 11.2686L26.9897 9.9238L22.1385 8.71311ZM21.8718 8.9798L23.0825 13.831L24.4273 13.4954L25.4073 12.5153L21.8718 8.9798ZM20.8938 9.33517L22.8622 13.9314L23.2823 13.7515L23.6628 13.4984L20.8938 9.33517ZM14.4922 10.0465L14.1086 5.06127L14.1086 15.0318L14.4922 10.0465ZM20.8938 10.7579L23.6695 6.59913L23.286 6.34319L22.8622 6.16168L20.8938 10.7579ZM21.8718 11.1133L25.4073 7.57774L24.4273 6.59767L23.0825 6.26206L21.8718 11.1133ZM22.1385 11.38L26.9897 10.1693L26.6541 8.8245L25.674 7.84442L22.1385 11.38ZM22.4939 12.358L27.0901 10.3895L26.9101 9.96945L26.6571 9.58897L22.4939 12.358ZM23.2052 19.0263L18.2187 19.3931H28.1918L23.2052 19.0263ZM23.9166 12.358L19.7578 9.58227L19.5019 9.96574L19.3204 10.3896L23.9166 12.358ZM24.272 11.38L20.7364 7.84442L19.7564 8.82449L19.4208 10.1693L24.272 11.38ZM24.5386 11.1133L23.328 6.26206L21.9832 6.59766L21.0031 7.57774L24.5386 11.1133ZM25.5167 10.7579L24.1469 5.9492L23.3969 6.16283L22.7477 6.59467L25.5167 10.7579ZM31.3849 10.1358L31.8073 15.118L36.3849 14.7299V10.1358H31.3849ZM31.3849 10.1358C31.8073 5.15363 31.8074 5.15364 31.8074 5.15364C31.8074 5.15364 31.8075 5.15365 31.8075 5.15364C31.8074 5.15364 31.8073 5.15363 31.8071 5.15362C31.8068 5.15359 31.8061 5.15353 31.8051 5.15344C31.8031 5.15327 31.7999 5.153 31.7955 5.15262C31.7866 5.15187 31.773 5.1507 31.7549 5.14914C31.7187 5.14603 31.6646 5.14134 31.595 5.13523C31.4556 5.12302 31.2546 5.10517 31.0109 5.08288C30.5219 5.03817 29.8688 4.97631 29.2016 4.90692C28.5258 4.83662 27.8737 4.76251 27.3735 4.69412C27.119 4.65934 26.9513 4.63242 26.86 4.61549C26.5934 4.56599 26.9773 4.61069 27.4851 4.82818L23.5482 14.0206C24.2117 14.3048 24.8958 14.4217 25.0352 14.4476C25.35 14.506 25.6942 14.5576 26.0191 14.602C26.6775 14.692 27.4536 14.779 28.167 14.8533C28.8891 14.9284 29.5863 14.9943 30.1003 15.0413C30.3581 15.0649 30.5718 15.0839 30.7217 15.097C30.7967 15.1036 30.8559 15.1087 30.8968 15.1123C30.9173 15.114 30.9332 15.1154 30.9443 15.1163C30.9498 15.1168 30.9541 15.1172 30.9572 15.1174C30.9587 15.1176 30.9599 15.1177 30.9608 15.1177C30.9613 15.1178 30.9617 15.1178 30.962 15.1178C30.9621 15.1179 30.9623 15.1179 30.9623 15.1179C30.9625 15.1179 30.9626 15.1179 31.3849 10.1358ZM28.2924 5.26563C27.1594 4.50941 25.8669 4.24716 25.7493 4.21782L23.328 13.9202C23.4251 13.9445 23.4686 13.9555 23.5037 13.9649C23.5348 13.9733 23.5211 13.9704 23.4818 13.9573C23.4422 13.9441 23.3529 13.9129 23.2328 13.8583C23.1122 13.8035 22.9397 13.7158 22.741 13.5832L28.2924 5.26563ZM28.0742 5.53349C28.0298 5.48916 27.9854 5.44467 27.9409 5.40017C27.8964 5.35568 27.8519 5.31116 27.8075 5.26681L20.7364 12.3379C20.7808 12.3822 20.8252 12.4267 20.8697 12.4712C20.9142 12.5157 20.9588 12.5602 21.0031 12.6046L28.0742 5.53349ZM29.1232 7.59167C29.0916 7.465 28.83 6.18309 28.0798 5.05525L19.7534 10.5933C19.6224 10.3964 19.5358 10.2257 19.4818 10.1068C19.4279 9.98818 19.3971 9.90011 19.3841 9.86122C19.3712 9.82244 19.3684 9.80911 19.3766 9.83975C19.3859 9.87413 19.3969 9.91763 19.4207 10.013L29.1232 7.59167ZM28.5984 6.06912C28.7901 6.58059 28.8133 6.95346 28.7587 6.57359C28.7347 6.4058 28.7032 6.14406 28.6665 5.78805C28.5939 5.08489 28.5171 4.17896 28.446 3.25957C28.3754 2.34751 28.3127 1.45339 28.2675 0.785088C28.2449 0.451592 28.2268 0.175826 28.2144 -0.0159648C28.2082 -0.111831 28.2034 -0.186632 28.2002 -0.23708C28.1986 -0.262302 28.1974 -0.281429 28.1966 -0.294051C28.1962 -0.300362 28.1959 -0.305045 28.1957 -0.30805C28.1956 -0.309552 28.1956 -0.310635 28.1955 -0.311292C28.1955 -0.31162 28.1955 -0.311842 28.1955 -0.311956C28.1955 -0.312014 28.1955 -0.312018 28.1955 -0.312047C28.1955 -0.312025 28.1955 -0.311977 23.2052 0C18.215 0.311977 18.215 0.31208 18.215 0.31221C18.215 0.312289 18.215 0.312447 18.215 0.312606C18.215 0.312924 18.215 0.31335 18.2151 0.313884C18.2152 0.314951 18.2152 0.316447 18.2154 0.318366C18.2156 0.322204 18.216 0.327734 18.2164 0.334903C18.2173 0.349242 18.2186 0.370142 18.2203 0.39719C18.2238 0.451283 18.2288 0.529993 18.2353 0.630011C18.2482 0.829987 18.267 1.11548 18.2903 1.45993C18.3368 2.14753 18.4019 3.07611 18.4758 4.0312C18.5492 4.97896 18.6336 5.98465 18.7194 6.81523C18.7618 7.22609 18.8089 7.63676 18.8602 7.99412C18.881 8.1394 18.9764 8.89016 19.2348 9.57946L28.5984 6.06912ZM23.2052 0C18.215 -0.311973 18.215 -0.312024 18.215 -0.312048C18.215 -0.312019 18.215 -0.312016 18.215 -0.31196C18.215 -0.311849 18.2149 -0.311629 18.2149 -0.311304C18.2149 -0.310652 18.2148 -0.309575 18.2147 -0.308078C18.2145 -0.305084 18.2142 -0.300412 18.2138 -0.294113C18.213 -0.281516 18.2118 -0.262417 18.2102 -0.237229C18.207 -0.186849 18.2023 -0.112143 18.1961 -0.016419C18.1836 0.175091 18.1656 0.450374 18.143 0.783016C18.0978 1.44969 18.0352 2.34042 17.9646 3.24614C17.8935 4.15983 17.817 5.05474 17.7448 5.74198C17.7082 6.09097 17.6776 6.33915 17.6551 6.49045C17.6435 6.56889 17.641 6.5735 17.6501 6.52951C17.6549 6.50672 17.6695 6.43797 17.6962 6.34021C17.7167 6.26504 17.7785 6.04457 17.8984 5.76492L27.0893 9.70521C27.3192 9.16908 27.4173 8.67812 27.4414 8.56186C27.4864 8.34533 27.5208 8.13334 27.5469 7.95775C27.5998 7.60099 27.6476 7.19141 27.6902 6.78608C27.7764 5.96468 27.8611 4.9647 27.9345 4.02238C28.0084 3.07209 28.0736 2.1457 28.1201 1.45924C28.1434 1.11532 28.1622 0.830036 28.1751 0.630123C28.1816 0.530136 28.1866 0.451416 28.1901 0.397298C28.1918 0.370236 28.1931 0.349318 28.194 0.334961C28.1945 0.327782 28.1948 0.322242 28.1951 0.318393C28.1952 0.316469 28.1953 0.314968 28.1954 0.313896C28.1954 0.31336 28.1954 0.312931 28.1954 0.31261C28.1954 0.31245 28.1955 0.31229 28.1955 0.31221C28.1955 0.312078 28.1955 0.311973 23.2052 0ZM18.3351 4.95934C17.5789 6.09235 17.3166 7.38487 17.2873 7.50242L26.9897 9.9238C27.0139 9.82663 27.0249 9.7832 27.0344 9.74803C27.0428 9.71696 27.0399 9.73063 27.0268 9.76998C27.0136 9.8095 26.9823 9.89884 26.9278 10.019C26.873 10.1395 26.7853 10.312 26.6526 10.5108L18.3351 4.95934ZM18.603 5.17757L18.3363 5.44425L25.4073 12.5153L25.674 12.2487L18.603 5.17757ZM20.6611 4.12858C20.5345 4.16019 19.2526 4.4218 18.1247 5.17195L23.6628 13.4984C23.4659 13.6294 23.2952 13.716 23.1762 13.77C23.0576 13.8238 22.9696 13.8547 22.9307 13.8676C22.8919 13.8806 22.8786 13.8834 22.9092 13.8751C22.9436 13.8658 22.9871 13.8548 23.0825 13.831L20.6611 4.12858ZM18.9253 4.73897C19.1468 4.64409 19.3216 4.59 19.3984 4.56722C19.4876 4.54073 19.5524 4.52507 19.5801 4.51859C19.6327 4.50629 19.6423 4.50601 19.5868 4.51562C19.4787 4.53433 19.2882 4.56251 19.0066 4.59795C18.4527 4.66765 17.731 4.74262 16.987 4.81323C16.2516 4.88303 15.5304 4.94519 14.9906 4.99008C14.7214 5.01246 14.4991 5.0304 14.3448 5.04268C14.2677 5.04882 14.2077 5.05355 14.1674 5.0567C14.1473 5.05827 14.1321 5.05945 14.1222 5.06022C14.1172 5.06061 14.1136 5.06089 14.1113 5.06106C14.1101 5.06115 14.1093 5.06121 14.1089 5.06125C14.1087 5.06126 14.1085 5.06128 14.1085 5.06128C14.1084 5.06128 14.1085 5.06128 14.1085 5.06128C14.1085 5.06128 14.1086 5.06127 14.4922 10.0465C14.8758 15.0318 14.8759 15.0318 14.876 15.0318C14.8761 15.0318 14.8763 15.0318 14.8764 15.0317C14.8767 15.0317 14.8771 15.0317 14.8776 15.0317C14.8785 15.0316 14.8798 15.0315 14.8815 15.0314C14.8848 15.0311 14.8894 15.0307 14.8954 15.0303C14.9074 15.0293 14.9247 15.028 14.9471 15.0263C14.9918 15.0228 15.0565 15.0177 15.1386 15.0111C15.3028 14.9981 15.5368 14.9792 15.8192 14.9557C16.3823 14.9089 17.1448 14.8432 17.9319 14.7685C18.7105 14.6946 19.5503 14.6084 20.2551 14.5197C20.6027 14.476 20.9659 14.4256 21.293 14.369C21.4136 14.3481 22.157 14.2334 22.8622 13.9314L18.9253 4.73897ZM14.4922 10.0465C14.1086 15.0318 14.1085 15.0318 14.1085 15.0318C14.1085 15.0318 14.1084 15.0318 14.1085 15.0318C14.1085 15.0318 14.1087 15.0318 14.1089 15.0318C14.1093 15.0319 14.1101 15.0319 14.1113 15.032C14.1136 15.0322 14.1172 15.0325 14.1222 15.0328C14.1321 15.0336 14.1473 15.0348 14.1674 15.0364C14.2077 15.0395 14.2677 15.0442 14.3448 15.0504C14.4991 15.0627 14.7214 15.0806 14.9906 15.103C15.5304 15.1479 16.2516 15.21 16.987 15.2798C17.731 15.3505 18.4526 15.4254 19.0066 15.4951C19.2882 15.5306 19.4787 15.5587 19.5868 15.5774C19.6423 15.5871 19.6327 15.5868 19.5801 15.5745C19.5525 15.568 19.4877 15.5523 19.3984 15.5259C19.3216 15.5031 19.1468 15.449 18.9253 15.3541L22.8622 6.16168C22.157 5.85965 21.4136 5.74495 21.293 5.72408C20.9658 5.66743 20.6027 5.61711 20.2551 5.57336C19.5503 5.48468 18.7105 5.39847 17.9319 5.32458C17.1448 5.24988 16.3823 5.1842 15.8192 5.13738C15.5368 5.1139 15.3028 5.09501 15.1386 5.08194C15.0565 5.0754 14.9918 5.07031 14.9471 5.06681C14.9247 5.06507 14.9074 5.06372 14.8954 5.06279C14.8894 5.06232 14.8848 5.06196 14.8815 5.06171C14.8798 5.06158 14.8785 5.06148 14.8776 5.06141C14.8771 5.06137 14.8767 5.06134 14.8764 5.06132C14.8763 5.06131 14.8761 5.0613 14.876 5.06129C14.8759 5.06128 14.8758 5.06127 14.4922 10.0465ZM18.118 14.9167C19.251 15.6729 20.5435 15.9351 20.6611 15.9645L23.0825 6.26206C22.9853 6.23781 22.9419 6.22683 22.9067 6.21736C22.8757 6.20899 22.8893 6.2119 22.9287 6.225C22.9682 6.23815 23.0575 6.26941 23.1776 6.324C23.2982 6.37879 23.4707 6.46648 23.6695 6.59913L18.118 14.9167ZM18.3363 14.6488C18.3806 14.6932 18.4251 14.7377 18.4696 14.7822C18.5141 14.8267 18.5586 14.8712 18.603 14.9155L25.674 7.84442C25.6297 7.80007 25.5852 7.75556 25.5407 7.71107C25.4962 7.66657 25.4517 7.62207 25.4073 7.57774L18.3363 14.6488ZM17.2873 12.5906C17.3189 12.7173 17.5805 13.9992 18.3306 15.127L26.6571 9.58897C26.7881 9.78591 26.8747 9.95657 26.9287 10.0755C26.9825 10.1941 27.0134 10.2822 27.0263 10.3211C27.0393 10.3599 27.0421 10.3732 27.0338 10.3426C27.0245 10.3082 27.0135 10.2647 26.9897 10.1693L17.2873 12.5906ZM17.8977 14.3265C17.7977 14.0931 17.7418 13.909 17.7194 13.8319C17.6927 13.7405 17.6772 13.6746 17.6711 13.6477C17.6594 13.5964 17.6597 13.5894 17.6697 13.6495C17.6893 13.7661 17.718 13.9681 17.7537 14.2634C17.824 14.844 17.8993 15.6004 17.9701 16.3784C18.0401 17.148 18.1024 17.9031 18.1473 18.4684C18.1697 18.7503 18.1877 18.9832 18.2 19.1449C18.2062 19.2258 18.2109 19.2887 18.2141 19.331C18.2157 19.3522 18.2168 19.3682 18.2176 19.3786C18.218 19.3839 18.2183 19.3877 18.2185 19.3901C18.2186 19.3913 18.2186 19.3922 18.2187 19.3927C18.2187 19.3929 18.2187 19.3931 18.2187 19.3932C18.2187 19.3932 18.2187 19.3932 18.2187 19.3932C18.2187 19.3931 18.2187 19.3931 23.2052 19.0263C28.1918 18.6595 28.1917 18.6594 28.1917 18.6593C28.1917 18.6592 28.1917 18.659 28.1917 18.6589C28.1917 18.6586 28.1917 18.6582 28.1916 18.6577C28.1915 18.6567 28.1914 18.6554 28.1913 18.6537C28.1911 18.6503 28.1907 18.6455 28.1903 18.6392C28.1893 18.6268 28.188 18.6087 28.1862 18.5855C28.1828 18.5389 28.1777 18.4714 28.1712 18.3857C28.1581 18.2144 28.1393 17.9701 28.1158 17.6755C28.0691 17.0877 28.0035 16.2925 27.929 15.4729C27.8552 14.6616 27.7694 13.7899 27.6813 13.0619C27.6378 12.7028 27.5881 12.3303 27.5323 11.9971C27.5136 11.886 27.4003 11.114 27.0901 10.3895L17.8977 14.3265ZM23.2052 19.0263C28.1918 19.3931 28.1917 19.3931 28.1917 19.3932C28.1917 19.3932 28.1917 19.3932 28.1917 19.3932C28.1917 19.3931 28.1918 19.3929 28.1918 19.3927C28.1918 19.3922 28.1919 19.3913 28.192 19.3901C28.1921 19.3877 28.1924 19.3839 28.1928 19.3786C28.1936 19.3682 28.1948 19.3522 28.1964 19.3311C28.1995 19.2887 28.2043 19.2258 28.2104 19.1449C28.2227 18.9832 28.2407 18.7503 28.2631 18.4684C28.3081 17.9031 28.3704 17.148 28.4404 16.3784C28.5111 15.6004 28.5864 14.8441 28.6567 14.2634C28.6924 13.9681 28.7212 13.7661 28.7407 13.6495C28.7508 13.5894 28.7511 13.5964 28.7394 13.6477C28.7332 13.6746 28.7177 13.7405 28.6911 13.8319C28.6686 13.909 28.6128 14.093 28.5128 14.3265L19.3204 10.3896C19.0101 11.114 18.8968 11.886 18.8782 11.9971C18.8224 12.3303 18.7726 12.7028 18.7291 13.0619C18.641 13.7899 18.5552 14.6616 18.4814 15.4729C18.4069 16.2925 18.3414 17.0877 18.2946 17.6755C18.2712 17.9701 18.2523 18.2144 18.2393 18.3857C18.2328 18.4714 18.2277 18.5389 18.2242 18.5855C18.2225 18.6087 18.2211 18.6268 18.2202 18.6392C18.2197 18.6455 18.2194 18.6503 18.2191 18.6537C18.219 18.6554 18.2189 18.6567 18.2188 18.6577C18.2188 18.6582 18.2188 18.6586 18.2187 18.6589C18.2187 18.659 18.2187 18.6592 18.2187 18.6593C18.2187 18.6594 18.2187 18.6595 23.2052 19.0263ZM28.0754 15.1337C28.8316 14.0007 29.0938 12.7082 29.1232 12.5906L19.4208 10.1693C19.3965 10.2664 19.3855 10.3099 19.376 10.345C19.3677 10.3761 19.3706 10.3624 19.3837 10.3231C19.3968 10.2836 19.4281 10.1942 19.4827 10.0741C19.5375 9.95354 19.6252 9.78102 19.7578 9.58227L28.0754 15.1337ZM27.8075 14.9155C27.8518 14.8711 27.8963 14.8266 27.9408 14.7821C27.9853 14.7376 28.0298 14.6931 28.0742 14.6488L21.0031 7.57774C20.9588 7.62209 20.9143 7.66659 20.8698 7.71109C20.8253 7.75559 20.7808 7.80008 20.7364 7.84442L27.8075 14.9155ZM25.7493 15.9645C25.876 15.9329 27.1579 15.6713 28.2857 14.9211L22.7477 6.59467C22.9446 6.46369 23.1152 6.37711 23.2342 6.32309C23.3528 6.26925 23.4409 6.2384 23.4798 6.22543C23.5185 6.21251 23.5319 6.20968 23.5012 6.21794C23.4669 6.22722 23.4234 6.23825 23.328 6.26206L25.7493 15.9645ZM26.8865 15.5666C26.588 15.6516 26.4072 15.6655 26.6579 15.6295C26.7946 15.6099 26.9985 15.5841 27.2676 15.5531C27.8006 15.4918 28.4784 15.4231 29.162 15.3575C29.8406 15.2923 30.5029 15.2324 30.9971 15.1886C31.2438 15.1667 31.4474 15.149 31.589 15.1367C31.6598 15.1306 31.7149 15.1259 31.7521 15.1227C31.7707 15.1211 31.7848 15.1199 31.7941 15.1191C31.7988 15.1187 31.8022 15.1184 31.8044 15.1182C31.8055 15.1181 31.8063 15.1181 31.8068 15.118C31.807 15.118 31.8072 15.118 31.8073 15.118C31.8073 15.118 31.8073 15.118 31.8073 15.118C31.8073 15.118 31.8073 15.118 31.3849 10.1358C30.9626 5.15371 30.9625 5.15372 30.9624 5.15373C30.9624 5.15373 30.9622 5.15374 30.9621 5.15375C30.9619 5.15377 30.9616 5.1538 30.9612 5.15383C30.9604 5.1539 30.9593 5.15399 30.9579 5.15411C30.955 5.15435 30.9509 5.1547 30.9456 5.15515C30.935 5.15605 30.9196 5.15737 30.8996 5.15908C30.8597 5.1625 30.8016 5.16749 30.7277 5.17388C30.5799 5.18665 30.3689 5.20503 30.1141 5.22763C29.6053 5.27273 28.9172 5.33502 28.2066 5.40323C27.5011 5.47095 26.7507 5.54665 26.125 5.61862C25.7472 5.66207 24.7952 5.7645 24.1469 5.9492L26.8865 15.5666ZM36.3849 10.1358V10.1358H26.3849V10.1358H36.3849Z" fill="white" mask="url(#path-5-inside-1_21_115)"/>
<mask id="path-7-inside-2_21_115" fill="white">
<path d="M46.3226 22.5832C30.4965 22.5832 17.6045 35.4751 17.6045 51.3014C17.6039 67.1281 30.4071 80.0195 46.3226 80.0195C62.2376 80.0195 75.0407 67.1276 75.0407 51.3014C75.0407 35.4753 62.1489 22.5832 46.3226 22.5832ZM46.3226 77.3522C31.9193 77.3522 20.2718 65.6156 20.2718 51.3014C20.2718 36.898 32.0083 25.2506 46.3226 25.2506C60.6372 25.2506 72.3734 36.9871 72.3734 51.3014C72.3734 65.7047 60.6375 77.3522 46.3226 77.3522Z"/>
</mask>
<path d="M46.3226 22.5832C30.4965 22.5832 17.6045 35.4751 17.6045 51.3014C17.6039 67.1281 30.4071 80.0195 46.3226 80.0195C62.2376 80.0195 75.0407 67.1276 75.0407 51.3014C75.0407 35.4753 62.1489 22.5832 46.3226 22.5832ZM46.3226 77.3522C31.9193 77.3522 20.2718 65.6156 20.2718 51.3014C20.2718 36.898 32.0083 25.2506 46.3226 25.2506C60.6372 25.2506 72.3734 36.9871 72.3734 51.3014C72.3734 65.7047 60.6375 77.3522 46.3226 77.3522Z" fill="white"/>
<path d="M17.6045 51.3014L22.6045 51.3016V51.3014H17.6045ZM46.3226 17.5832C27.7351 17.5832 12.6045 32.7137 12.6045 51.3014H22.6045C22.6045 38.2366 33.2579 27.5832 46.3226 27.5832V17.5832ZM12.6045 51.3012C12.6038 69.8796 27.6358 85.0195 46.3226 85.0195V75.0195C33.1784 75.0195 22.604 64.3766 22.6045 51.3016L12.6045 51.3012ZM46.3226 85.0195C65.0091 85.0195 80.0407 69.879 80.0407 51.3014H70.0407C70.0407 64.3763 59.4661 75.0195 46.3226 75.0195V85.0195ZM80.0407 51.3014C80.0407 32.7139 64.9103 17.5832 46.3226 17.5832V27.5832C59.3874 27.5832 70.0407 38.2367 70.0407 51.3014H80.0407ZM46.3226 72.3522C34.6918 72.3522 25.2718 62.8654 25.2718 51.3014H15.2718C15.2718 68.3659 29.1467 82.3522 46.3226 82.3522V72.3522ZM25.2718 51.3014C25.2718 39.6705 34.7586 30.2506 46.3226 30.2506V20.2506C29.258 20.2506 15.2718 34.1255 15.2718 51.3014H25.2718ZM46.3226 30.2506C57.8758 30.2506 67.3734 39.7485 67.3734 51.3014H77.3734C77.3734 34.2257 63.3987 20.2506 46.3226 20.2506V30.2506ZM67.3734 51.3014C67.3734 62.9323 57.8872 72.3522 46.3226 72.3522V82.3522C63.3879 82.3522 77.3734 68.4772 77.3734 51.3014H67.3734Z" fill="white" mask="url(#path-7-inside-2_21_115)"/>
<mask id="path-9-inside-3_21_115" fill="white">
<path d="M60.3703 34.2305C60.637 33.7859 60.637 33.2525 60.3703 32.7191C60.1036 32.1858 59.5702 31.6524 58.9476 31.2964C57.6141 30.4964 56.1021 30.5851 55.658 31.4744C55.3913 31.9191 55.3913 32.4525 55.658 32.9858C55.7467 33.2525 56.0134 33.5192 56.1914 33.7859C56.4581 34.0526 56.7248 34.2306 57.0807 34.4972C57.7034 34.8526 58.4142 35.0306 59.0368 35.0306C59.6588 34.9413 60.1922 34.6746 60.3702 34.2306L60.3703 34.2305Z"/>
</mask>
<path d="M60.3703 34.2305C60.637 33.7859 60.637 33.2525 60.3703 32.7191C60.1036 32.1858 59.5702 31.6524 58.9476 31.2964C57.6141 30.4964 56.1021 30.5851 55.658 31.4744C55.3913 31.9191 55.3913 32.4525 55.658 32.9858C55.7467 33.2525 56.0134 33.5192 56.1914 33.7859C56.4581 34.0526 56.7248 34.2306 57.0807 34.4972C57.7034 34.8526 58.4142 35.0306 59.0368 35.0306C59.6588 34.9413 60.1922 34.6746 60.3702 34.2306L60.3703 34.2305Z" fill="white"/>
<path d="M60.3703 34.2305L61.2392 39.1545L63.4852 38.7581L64.6583 36.8021L60.3703 34.2305ZM58.9476 31.2964L56.3751 35.5839L56.4202 35.611L56.466 35.6371L58.9476 31.2964ZM55.658 31.4744L59.946 34.046L60.0452 33.8806L60.1314 33.7081L55.658 31.4744ZM55.658 32.9858L60.4025 31.408L60.2898 31.0691L60.1301 30.7497L55.658 32.9858ZM56.1914 33.7859L52.0326 36.5616L52.3067 36.9723L52.6559 37.3214L56.1914 33.7859ZM57.0807 34.4972L54.083 38.4989L54.3321 38.6855L54.6024 38.8398L57.0807 34.4972ZM59.0368 35.0306V40.0306H59.3939L59.7473 39.9799L59.0368 35.0306ZM60.3702 34.2306L59.5013 29.3066L56.7635 29.7898L55.7291 32.3703L60.3702 34.2306ZM64.6583 36.8021C65.9485 34.6508 65.7387 32.2757 64.8424 30.483L55.8982 34.9553C55.7338 34.6265 55.5703 34.1322 55.5703 33.5081C55.5703 32.8648 55.7462 32.2194 56.0823 31.6589L64.6583 36.8021ZM64.8424 30.483C64.0517 28.9016 62.7324 27.7008 61.4291 26.9557L56.466 35.6371C56.3887 35.5929 56.3238 35.5437 56.2569 35.4768C56.1993 35.4192 56.0499 35.2588 55.8982 34.9553L64.8424 30.483ZM61.5201 27.009C60.1183 26.1679 58.4254 25.6633 56.692 25.7596C55.0329 25.8517 52.4904 26.6259 51.1847 29.2408L60.1314 33.7081C59.2698 35.4336 57.7053 35.7187 57.2466 35.7442C56.7135 35.7738 56.4434 35.6249 56.3751 35.5839L61.5201 27.009ZM51.37 28.9028C50.0798 31.0541 50.2895 33.4293 51.1859 35.2219L60.1301 30.7497C60.2945 31.0784 60.458 31.5728 60.458 32.1969C60.458 32.8402 60.2821 33.4856 59.946 34.046L51.37 28.9028ZM50.9135 34.5636C51.0885 35.0898 51.311 35.5011 51.4734 35.7702C51.6374 36.0418 51.7963 36.2594 51.8912 36.3858C51.9413 36.4527 51.9871 36.5118 52.0181 36.5517C52.0585 36.6038 52.0658 36.613 52.0861 36.6394C52.1202 36.6836 52.0858 36.6412 52.0326 36.5616L60.3502 31.0101C60.208 30.7972 60.0735 30.6215 60.0047 30.5324C59.9736 30.492 59.9289 30.4346 59.9175 30.42C59.8967 30.3932 59.8911 30.3857 59.8912 30.3859C59.8919 30.3868 59.9067 30.4064 59.9294 30.4392C59.9521 30.472 59.9893 30.5274 60.0341 30.6015C60.0787 30.6754 60.1374 30.7788 60.2 30.9083C60.2627 31.0379 60.3352 31.2056 60.4025 31.408L50.9135 34.5636ZM52.6559 37.3214C53.2534 37.919 53.9772 38.4197 54.083 38.4989L60.0785 30.4956C59.9685 30.4131 59.8615 30.3347 59.7943 30.2852C59.7172 30.2284 59.6787 30.1996 59.6513 30.1786C59.6098 30.1466 59.6566 30.18 59.7269 30.2503L52.6559 37.3214ZM54.6024 38.8398C55.9717 39.6213 57.5354 40.0306 59.0368 40.0306V30.0306C59.1904 30.0306 59.2903 30.0509 59.3475 30.0661C59.4076 30.0822 59.4769 30.1078 59.5591 30.1547L54.6024 38.8398ZM59.7473 39.9799C60.8795 39.8173 63.8029 39.1053 65.0112 36.0909L55.7291 32.3703C56.1712 31.2673 56.9396 30.6794 57.3893 30.4224C57.8332 30.1688 58.1829 30.1019 58.3262 30.0814L59.7473 39.9799ZM61.2391 39.1545L61.2392 39.1545L59.5013 29.3066L59.5013 29.3066L61.2391 39.1545Z" fill="white" mask="url(#path-9-inside-3_21_115)"/>
<path d="M44.088 36.5011L44.0271 36.7451C44.0771 36.7576 44.1192 36.7681 44.1571 36.7778L44.088 36.5011ZM44.088 36.5011L43.5658 34.4082L44.0887 36.4983L44.088 36.5011ZM40.708 36.2886L40.5581 36.4384L40.7006 36.284C40.7033 36.2856 40.7057 36.2871 40.708 36.2886ZM42.8301 38.0704L43.5076 37.2802C43.7275 37.0237 43.9965 36.8786 44.1688 36.8344C44.1739 36.8335 44.1991 36.8292 44.2547 36.8258C44.2731 36.8246 44.292 36.8237 44.3123 36.8229L44.3593 36.8699L44.5244 37.3663L45.0505 37.8175C45.0726 37.8364 45.1014 37.8705 45.1244 37.9212C45.1478 37.9727 45.1559 38.0208 45.1559 38.0537C45.1559 38.0893 45.1507 38.1132 45.1401 38.1402C45.1278 38.1715 45.0977 38.2323 45.0245 38.3201L46.9446 39.9211L45.0245 38.3201C44.9794 38.3741 44.9474 38.4047 44.9292 38.4204L44.1747 38.5145L43.5939 39.0309C43.445 39.1633 43.2786 39.2539 43.1362 39.3003C43.0397 39.3317 42.9853 39.3335 42.973 39.3338L42.86 39.3112C42.8542 39.3005 42.8482 39.2886 42.842 39.2753C42.7874 39.1582 42.7581 39.0097 42.769 38.8676L42.8301 38.0704ZM44.3227 36.8225C44.3241 36.8229 44.3254 36.8233 44.3267 36.8237L44.3227 36.8225ZM44.2476 36.8014C44.271 36.8077 44.2907 36.8132 44.3075 36.8181L44.1588 36.7782C44.1908 36.7864 44.2197 36.7939 44.2476 36.8014ZM41.0764 35.2976L41.0712 35.3078L41.0764 35.2976ZM40.73 36.3039C40.73 36.3039 40.7294 36.3035 40.7284 36.3026C40.7295 36.3034 40.73 36.3039 40.73 36.3039Z" fill="white" stroke="white" stroke-width="5"/>
<path d="M53.7905 39.3978H53.7995C53.8708 39.4008 54.0398 39.4396 54.2424 39.5749C54.3011 39.6583 54.3359 39.7239 54.357 39.7737C54.3859 39.8419 54.4028 39.9105 54.4028 40.0085C54.4028 40.1291 54.3729 40.2122 54.3349 40.2746C54.2947 40.3404 54.2246 40.4164 54.1058 40.4812L53.0369 41.0641L52.8367 42.2651C52.8073 42.4415 52.7438 42.6046 52.6528 42.7477C52.1998 42.5279 51.6855 42.3988 51.1238 42.3988C50.8225 42.3988 50.5257 42.4397 50.24 42.5169C50.1851 42.369 50.1562 42.2127 50.1562 42.0541C50.1562 41.3923 50.6788 40.7901 51.4389 40.721L52.8234 40.595L53.3548 39.5359C53.374 39.5165 53.3963 39.4941 53.4248 39.4657L53.4264 39.4641C53.4343 39.4561 53.4411 39.4498 53.4467 39.445L53.5936 39.4206L53.6603 39.3984C53.6728 39.3982 53.6869 39.3981 53.7035 39.398L53.7905 39.3978Z" fill="white" stroke="white" stroke-width="5"/>
<path d="M61.1048 40.5801C61.1058 40.5757 61.1066 40.5721 61.1073 40.5691L61.1193 40.5452L61.1425 40.493C61.1809 40.4067 61.2314 40.3358 61.3031 40.2669C61.366 40.2063 61.455 40.1384 61.5795 40.0689C61.6542 40.0419 61.6934 40.0318 61.7123 40.0276C61.7287 40.024 61.7467 40.0205 61.7927 40.0205C61.852 40.0205 61.9014 40.0267 61.9339 40.0335C61.9374 40.0343 61.9405 40.0349 61.9431 40.0356C61.99 40.061 62.0263 40.0874 62.066 40.1227C62.1096 40.1614 62.1683 40.2207 62.255 40.324C62.3106 40.416 62.3432 40.4882 62.3635 40.5471C62.3875 40.6164 62.4048 40.697 62.4048 40.8101C62.4048 40.9967 62.3424 41.1378 62.2868 41.2173C62.174 41.3037 62.0888 41.3504 62.0275 41.3764C61.9593 41.4053 61.8907 41.4222 61.7927 41.4222C61.7333 41.4222 61.6839 41.416 61.6514 41.4091C61.6471 41.4082 61.6434 41.4074 61.6404 41.4066L61.6165 41.3947L61.5644 41.3715C61.478 41.333 61.4071 41.2825 61.3382 41.2109C61.2776 41.1479 61.2098 41.0589 61.1402 40.9345C61.1132 40.8598 61.1031 40.8206 61.0989 40.8017C61.0953 40.7853 61.0918 40.7673 61.0918 40.7213C61.0918 40.662 61.098 40.6126 61.1048 40.5801Z" fill="white" stroke="white" stroke-width="5"/>
<path d="M59.7475 47.6485V48.6374V48.8116V48.8994V48.9859L59.3013 49.8813C59.1593 49.8192 59.0227 49.7271 58.9056 49.6044C58.6828 49.3709 58.5809 49.081 58.5809 48.8116C58.5809 48.4314 58.7427 48.1476 58.9129 47.9774C59.004 47.8862 59.1277 47.7974 59.2812 47.7346C59.2858 47.7328 59.2903 47.7309 59.2949 47.7291C59.4153 47.6816 59.5536 47.6501 59.7085 47.6456C59.718 47.6461 59.7312 47.647 59.7475 47.6485ZM59.3154 49.8874L59.7475 49.1669V49.9747C59.7324 49.9761 59.72 49.977 59.7107 49.9775C59.582 49.9727 59.4466 49.9428 59.3154 49.8874Z" fill="white" stroke="white" stroke-width="5"/>
<path d="M31.4633 33.9638C31.4633 33.3185 31.9861 32.7972 32.6293 32.7972C33.2739 32.7972 33.7959 33.3193 33.7959 33.9638C33.7959 34.607 33.2746 35.1298 32.6293 35.1298C31.9854 35.1298 31.4633 34.6077 31.4633 33.9638Z" fill="white" stroke="white" stroke-width="5"/>
<mask id="path-16-inside-4_21_115" fill="white">
<path d="M63.4818 34.8529C63.7485 34.8529 63.9265 34.7642 64.1045 34.6749C63.5711 34.0522 62.9485 33.5189 62.3264 32.8969C62.2377 33.0749 62.1484 33.2522 62.1484 33.5195C62.1484 33.8749 62.3264 34.2309 62.5038 34.4976C62.8598 34.7643 63.1265 34.853 63.4819 34.853L63.4818 34.8529Z"/>
</mask>
<path d="M63.4818 34.8529C63.7485 34.8529 63.9265 34.7642 64.1045 34.6749C63.5711 34.0522 62.9485 33.5189 62.3264 32.8969C62.2377 33.0749 62.1484 33.2522 62.1484 33.5195C62.1484 33.8749 62.3264 34.2309 62.5038 34.4976C62.8598 34.7643 63.1265 34.853 63.4819 34.853L63.4818 34.8529Z" fill="white"/>
<path d="M63.4818 34.8529V29.8529H50.9591L60.0381 38.4779L63.4818 34.8529ZM64.1045 34.6749L66.3468 39.1439L72.0604 36.2771L67.9018 31.4222L64.1045 34.6749ZM62.3264 32.8969L65.862 29.3613L60.9494 24.4488L57.8512 30.6671L62.3264 32.8969ZM62.5038 34.4976L58.3406 37.2666L58.8172 37.9832L59.506 38.4993L62.5038 34.4976ZM63.4819 34.853V39.853H76.0046L66.9256 31.228L63.4819 34.853ZM63.4818 39.8529C65.0215 39.8529 66.1195 39.258 66.3468 39.1439L61.8622 30.2059C61.739 30.2677 61.956 30.1503 62.2463 30.0536C62.6029 29.9349 63.0251 29.8529 63.4818 29.8529V39.8529ZM67.9018 31.4222C67.2214 30.6279 66.1016 29.601 65.862 29.3613L58.7909 36.4324C59.7953 37.4368 59.9208 37.4766 60.3071 37.9276L67.9018 31.4222ZM57.8512 30.6671C57.75 30.8701 57.1484 31.9751 57.1484 33.5195H67.1484C67.1484 33.9793 67.0655 34.4031 66.9465 34.7592C66.851 35.0448 66.7334 35.2638 66.8017 35.1267L57.8512 30.6671ZM57.1484 33.5195C57.1484 35.3776 58.0004 36.7551 58.3406 37.2666L66.667 31.7286C66.709 31.7916 66.8061 31.9451 66.9023 32.1856C66.9942 32.4155 67.1484 32.8816 67.1484 33.5195H57.1484ZM59.506 38.4993C60.6041 39.3218 61.9014 39.853 63.4819 39.853V29.853C63.7517 29.853 64.1831 29.8912 64.6731 30.066C65.1301 30.229 65.4181 30.4334 65.5016 30.4959L59.506 38.4993ZM66.9256 31.228L66.9256 31.2279L60.0381 38.4779L60.0381 38.478L66.9256 31.228Z" fill="white" mask="url(#path-16-inside-4_21_115)"/>
<path d="M52.8119 67.572C52.8119 68.2828 51.7451 68.2828 51.7451 67.572C51.7451 66.8607 52.8119 66.8607 52.8119 67.572Z" fill="white" stroke="white" stroke-width="5"/>
<mask id="path-19-inside-5_21_115" fill="white">
<path d="M41.3431 44.6331C41.0764 44.8998 40.8984 45.1664 40.8984 45.5224C40.8984 45.8778 41.0764 46.1451 41.3431 46.4118C41.6098 46.6785 42.0545 46.7672 42.4991 46.7672C42.9438 46.7672 43.3885 46.5892 43.6552 46.4118C43.9219 46.1451 44.0999 45.8784 44.0999 45.5224C44.0999 45.1671 43.9219 44.8998 43.6552 44.6331C43.3885 44.3664 42.9438 44.2777 42.4991 44.2777C42.0545 44.2771 41.6104 44.4551 41.3431 44.6331Z"/>
</mask>
<path d="M41.3431 44.6331C41.0764 44.8998 40.8984 45.1664 40.8984 45.5224C40.8984 45.8778 41.0764 46.1451 41.3431 46.4118C41.6098 46.6785 42.0545 46.7672 42.4991 46.7672C42.9438 46.7672 43.3885 46.5892 43.6552 46.4118C43.9219 46.1451 44.0999 45.8784 44.0999 45.5224C44.0999 45.1671 43.9219 44.8998 43.6552 44.6331C43.3885 44.3664 42.9438 44.2777 42.4991 44.2777C42.0545 44.2771 41.6104 44.4551 41.3431 44.6331Z" fill="white"/>
<path d="M41.3431 44.6331L38.5717 40.4714L38.1586 40.7466L37.8076 41.0975L41.3431 44.6331ZM43.6552 46.4118L46.4243 50.575L46.8388 50.2993L47.1907 49.9473L43.6552 46.4118ZM42.4991 44.2777L42.4922 49.2777H42.4991V44.2777ZM37.8076 41.0975C37.1828 41.7223 35.8984 43.1996 35.8984 45.5224H45.8984C45.8984 46.2417 45.7031 46.895 45.4228 47.4153C45.1773 47.8711 44.9165 48.1308 44.8786 48.1686L37.8076 41.0975ZM35.8984 45.5224C35.8984 47.8434 37.1813 49.3211 37.8076 49.9473L44.8786 42.8763C44.9181 42.9157 45.1784 43.1753 45.4234 43.6303C45.7026 44.1491 45.8984 44.8019 45.8984 45.5224H35.8984ZM37.8076 49.9473C39.5417 51.6814 41.7369 51.7672 42.4991 51.7672V41.7672C42.579 41.7672 42.8321 41.7719 43.191 41.8714C43.5428 41.969 44.2252 42.2229 44.8786 42.8763L37.8076 49.9473ZM42.4991 51.7672C44.1161 51.7672 45.5081 51.1844 46.4243 50.575L40.886 42.2487C41.144 42.077 41.3698 41.9769 41.5633 41.9124C41.7596 41.847 42.0766 41.7672 42.4991 41.7672V51.7672ZM47.1907 49.9473C47.8155 49.3226 49.0999 47.8453 49.0999 45.5224H39.0999C39.0999 44.8032 39.2952 44.1499 39.5755 43.6296C39.821 43.1738 40.0818 42.9141 40.1196 42.8763L47.1907 49.9473ZM49.0999 45.5224C49.0999 43.2014 47.8169 41.7237 47.1907 41.0975L40.1196 48.1686C40.0802 48.1292 39.8199 47.8696 39.5749 47.4146C39.2957 46.8959 39.0999 46.243 39.0999 45.5224H49.0999ZM47.1907 41.0975C45.4566 39.3635 43.2614 39.2777 42.4991 39.2777V49.2777C42.4193 49.2777 42.1662 49.273 41.8073 49.1734C41.4555 49.0758 40.773 48.822 40.1196 48.1686L47.1907 41.0975ZM42.5061 39.2777C40.8824 39.2755 39.4876 39.8615 38.5717 40.4714L44.1145 48.7947C43.8579 48.9657 43.6318 49.0665 43.4357 49.1318C43.2372 49.198 42.9174 49.2783 42.4922 49.2777L42.5061 39.2777Z" fill="white" mask="url(#path-19-inside-5_21_115)"/>
<path d="M44.8115 62.07H44.8208C45.232 62.073 45.5517 62.2743 45.7012 62.4774C45.9081 62.8564 45.957 63.1076 45.957 63.2149C45.957 63.3326 45.9381 63.4033 45.9248 63.4405C45.9203 63.4532 45.9155 63.4645 45.9106 63.4745C45.7832 63.5806 45.4846 63.7383 44.8115 63.7383C44.192 63.7383 43.8678 63.5738 43.7588 63.4888C43.7129 63.453 43.7017 63.4311 43.6973 63.4218C43.693 63.413 43.666 63.3567 43.666 63.2155C43.666 62.5905 44.1962 62.07 44.8115 62.07Z" fill="white" stroke="white" stroke-width="5"/>
<path d="M36.6469 55.6173C37.0175 55.377 37.3354 55.0541 37.5736 54.6765C37.6094 54.6196 37.6435 54.5615 37.6757 54.5023C37.8502 54.1808 37.9689 53.8256 38.0169 53.4519M36.6469 55.6173L39.4333 56.3803C39.3033 56.3661 39.168 56.3577 39.03 56.3577C38.5302 56.3577 38.0609 56.4411 37.6277 56.5885C37.6142 56.5783 37.6007 56.5682 37.5872 56.5581C37.9007 55.9788 38.086 55.3416 38.1416 54.728L38.1518 54.6154V54.5023C38.1518 54.139 38.1049 53.787 38.0169 53.4519M36.6469 55.6173L36.7778 54.6044L36.791 54.5023L36.8959 53.6916H35.7187L36.6469 55.6173ZM38.0169 53.4519C37.6857 52.1922 36.7723 51.1718 35.5794 50.6946M38.0169 53.4519C38.0326 53.3291 38.0408 53.2044 38.0408 53.0781C38.0408 51.5126 36.7953 50.1942 35.2562 50.0747M35.1784 58.5418C34.8608 58.6307 34.518 58.6828 34.1502 58.6907C34.1507 58.7169 34.151 58.7433 34.151 58.7697L35.1784 58.5418ZM35.1784 58.5418C35.0856 58.6866 35.0016 58.8343 34.9269 58.9835L35.4951 59.2679L36.147 59.5941L36.1995 59.6204L35.1784 58.5418ZM35.5794 50.6946L40.5408 53.0781C40.5408 50.5363 38.7804 48.3715 36.4229 47.747C36.0595 48.4959 35.5721 49.1324 35.0285 49.678C35.0248 49.6817 35.0212 49.6853 35.0175 49.689L34.8255 49.497C34.8958 49.5768 34.9635 49.6594 35.0285 49.7449C35.1088 49.8505 35.1848 49.9605 35.2562 50.0747M35.5794 50.6946C35.4862 50.4759 35.3779 50.2691 35.2562 50.0747M35.5794 50.6946L34.7981 50.0673C34.8049 50.0672 34.8125 50.067 34.8208 50.0668C34.8456 50.0664 34.8743 50.0661 34.9095 50.066C34.9453 50.0658 34.983 50.0658 35.0285 50.0658C35.105 50.0658 35.181 50.0688 35.2562 50.0747M34.9514 61.8253C34.8507 62.5973 34.2305 63.2356 33.281 63.2934L33.2538 63.2934C33.2373 63.2933 33.2233 63.2932 33.2109 63.293L32.9321 63.2001L32.5296 63.0659L31.7379 62.8026L30.965 63.0615C30.9542 63.0638 30.9325 63.0684 30.8944 63.076L30.8778 63.0793C30.7614 63.1025 30.5224 63.1501 30.2404 63.2439L29.7767 63.3981C29.7404 63.4013 29.7092 63.4044 29.6842 63.4069L29.6423 63.4113L29.5608 63.4011C29.4717 63.3899 29.3888 63.3772 29.3111 63.3629C29.1787 62.8739 28.9449 62.4113 28.6236 62.0094L28.6226 62.0081C28.1166 61.3758 27.4202 60.9208 26.6617 60.714C26.6142 60.7011 26.5652 60.6888 26.5147 60.6774C26.2435 60.0928 25.9948 59.5101 25.7746 58.9276C26.772 58.0764 27.2045 56.8378 27.2709 55.6287C27.4855 55.8808 27.7255 56.1054 27.9852 56.3015C27.3824 56.9371 27.0175 57.8019 27.0175 58.7697C27.0175 60.7716 28.5799 62.3365 30.5843 62.3365C31.9607 62.3365 33.3437 61.4784 33.8981 60.1001L34.6093 60.5748C34.6135 60.5784 34.6201 60.5843 34.6277 60.5919C34.635 60.5992 34.6407 60.6055 34.6443 60.6097C34.6674 60.6454 34.7021 60.7048 34.7376 60.7758C34.7556 60.8118 34.77 60.8432 34.7804 60.8675C34.7861 60.8809 34.7894 60.8894 34.7908 60.8932C34.7911 60.894 34.7913 60.8945 34.7915 60.8949L34.9935 61.5023L34.9514 61.8253ZM30.9459 65.3653C31.0034 65.3766 31.0588 65.3914 31.1119 65.4091L31.0293 65.6162L31.3554 66.5967L31.3267 66.6829L30.9545 67.8022C30.864 67.8261 30.7697 67.8389 30.6733 67.8389C30.5015 67.8389 30.3365 67.7983 30.1876 67.7264C30.1732 67.7194 30.1589 67.7122 30.1448 67.7046L30.1434 66.6829L30.1416 65.4439C30.2977 65.3788 30.4763 65.3389 30.6733 65.3389C30.7687 65.3389 30.8597 65.3483 30.9459 65.3653ZM27.2898 63.6611L26.9529 64.3372L26.9364 64.3427C26.9436 64.1603 26.9003 63.9632 26.8064 63.78L27.2898 63.6611ZM29.583 59.7705C29.3139 59.5013 29.1894 59.181 29.1588 58.9064L29.3635 58.7697L29.5219 58.664C29.519 58.6986 29.5175 58.7339 29.5175 58.7697C29.5175 59.3918 29.9616 59.8365 30.5843 59.8365C31.1176 59.8365 31.651 59.3918 31.651 58.7697C31.651 58.7434 31.6502 58.7174 31.6486 58.6917H31.7879L31.9048 58.7697L32.0152 58.8435C31.9975 59.1313 31.8752 59.4809 31.585 59.771C31.2697 60.0862 30.8842 60.203 30.5843 60.203C30.2841 60.203 29.8984 60.086 29.583 59.7705ZM34.0518 56.3019V56.1917L34.4169 56.2389L34.0518 56.3019ZM34.2084 50.2011C34.2082 50.2011 34.2091 50.2009 34.2111 50.2005C34.2095 50.2009 34.2085 50.2011 34.2084 50.2011ZM29.2893 46.4864L29.1206 46.3738C30.2352 45.9105 31.1254 44.9731 31.5234 43.8294L32.0826 44.9516C32.0825 44.9601 32.0824 44.9685 32.0822 44.9769C32.0818 44.9996 32.0812 45.0187 32.0806 45.0347L32.0734 45.0563L32.0431 45.2079C31.982 45.5133 31.8357 45.7998 31.482 46.1534L31.5657 46.2555L30.6856 46.4767C30.5552 46.5095 30.4318 46.5361 30.3163 46.5544C30.1992 46.5729 30.1109 46.5793 30.0503 46.5793C29.8597 46.5793 29.7597 46.5785 29.6724 46.5731C29.6161 46.5696 29.591 46.5653 29.5864 46.5644C29.4947 46.5415 29.4292 46.5251 29.3684 46.5087C29.3354 46.4998 29.3096 46.4925 29.2893 46.4864ZM32.7267 42.4186L31.6149 43.5305C31.7027 43.1988 31.7495 42.8526 31.7495 42.4978C31.7495 41.5746 31.4526 40.7402 30.9639 40.063L31.0019 40.0402L31.1017 39.9653C31.1166 39.9569 31.1861 39.9226 31.3484 39.8956L31.5415 39.8635L31.6082 39.8413C31.6207 39.8412 31.6348 39.841 31.6514 39.8409L31.7384 39.8408C32.5804 39.8408 33.2392 40.4996 33.2392 41.3416C33.2392 41.4855 33.2016 41.6644 33.0671 42.0022C33.0643 42.007 33.0444 42.0449 32.9933 42.1141C32.9263 42.2051 32.8348 42.3106 32.7267 42.4186ZM31.0986 39.9672C31.0986 39.9671 31.0993 39.9667 31.1009 39.9658C31.0994 39.9667 31.0986 39.9672 31.0986 39.9672Z" fill="white" stroke="white" stroke-width="5"/>
<mask id="path-23-inside-6_21_115" fill="white">
<path d="M40.4543 68.8167C40.4543 68.0167 40.0096 67.3053 39.2983 67.0387C39.0316 66.95 38.8536 66.8607 38.5869 66.8607C37.5202 66.8607 36.4529 67.75 36.6309 68.8167C36.7196 69.5281 37.7869 69.7061 38.5869 70.4168C38.6756 70.5055 38.7649 70.5948 38.9423 70.5948H39.2977C39.3864 70.5948 39.4757 70.5061 39.653 70.5061C39.7417 70.4174 39.831 70.4174 39.9197 70.3281C40.1876 69.8834 40.4543 69.3501 40.4543 68.8167L40.4543 68.8167Z"/>
</mask>
<path d="M40.4543 68.8167C40.4543 68.0167 40.0096 67.3053 39.2983 67.0387C39.0316 66.95 38.8536 66.8607 38.5869 66.8607C37.5202 66.8607 36.4529 67.75 36.6309 68.8167C36.7196 69.5281 37.7869 69.7061 38.5869 70.4168C38.6756 70.5055 38.7649 70.5948 38.9423 70.5948H39.2977C39.3864 70.5948 39.4757 70.5061 39.653 70.5061C39.7417 70.4174 39.831 70.4174 39.9197 70.3281C40.1876 69.8834 40.4543 69.3501 40.4543 68.8167L40.4543 68.8167Z" fill="white"/>
<path d="M40.4543 68.8167H35.4543L44.9265 71.0528L40.4543 68.8167ZM39.2983 67.0387L41.0533 62.3568L40.9653 62.3238L40.8761 62.2942L39.2983 67.0387ZM36.6309 68.8167L41.5925 68.1982L41.5797 68.0957L41.5627 67.9938L36.6309 68.8167ZM38.5869 70.4168L42.1225 66.8813L42.0181 66.7769L41.9077 66.6788L38.5869 70.4168ZM39.653 70.5061V75.5061H41.7241L43.1886 74.0416L39.653 70.5061ZM39.9197 70.3281L43.4676 73.8513L43.8918 73.4241L44.2024 72.9085L39.9197 70.3281ZM40.4543 68.8167H45.4543L35.9822 66.5806L40.4543 68.8167ZM45.4543 68.8167C45.4543 66.2201 43.9729 63.4512 41.0533 62.3568L37.5433 71.7206C36.0464 71.1594 35.4543 69.8133 35.4543 68.8167H45.4543ZM40.8761 62.2942C40.8761 62.2942 40.8843 62.2971 40.794 62.2648C40.7314 62.2424 40.5707 62.1848 40.3818 62.128C39.9394 61.9951 39.3316 61.8607 38.5869 61.8607V71.8607C38.3669 71.8607 38.1522 71.8416 37.9484 71.8076C37.7497 71.7743 37.595 71.7323 37.5034 71.7048C37.4257 71.6815 37.3762 71.6628 37.4303 71.6821C37.4567 71.6915 37.5871 71.7389 37.7205 71.7832L40.8761 62.2942ZM38.5869 61.8607C36.7309 61.8607 34.9844 62.6033 33.7154 63.7977C32.4054 65.0305 31.2771 67.1107 31.6991 69.6396L41.5627 67.9938C41.8067 69.4561 41.123 70.5582 40.5689 71.0797C40.0557 71.5628 39.3762 71.8607 38.5869 71.8607V61.8607ZM31.6693 69.4353C31.8568 70.939 32.5864 72.0469 33.2871 72.7632C33.8971 73.3868 34.5426 73.7711 34.8075 73.9269C34.9613 74.0174 35.1196 74.1052 35.2011 74.1507C35.3032 74.2077 35.3538 74.2366 35.393 74.26C35.4702 74.306 35.3932 74.2677 35.2662 74.1548L41.9077 66.6788C41.3806 66.2106 40.8702 65.8834 40.5195 65.674C40.3448 65.5697 40.1828 65.4791 40.0786 65.4208C39.9537 65.3511 39.912 65.3278 39.8769 65.3071C39.8475 65.2898 39.8953 65.3164 39.9789 65.3759C40.0624 65.4354 40.2346 65.565 40.4358 65.7706C40.6423 65.9817 40.9024 66.2964 41.1294 66.7266C41.3634 67.1699 41.5265 67.6688 41.5925 68.1982L31.6693 69.4353ZM35.0514 73.9523C35.187 74.088 36.5628 75.5948 38.9423 75.5948V65.5948C39.7853 65.5948 40.6059 65.8321 41.3073 66.2537C41.8612 66.5866 42.2319 66.9907 42.1225 66.8813L35.0514 73.9523ZM38.9423 75.5948H39.2977V65.5948H38.9423V75.5948ZM39.2977 75.5948C39.7272 75.5948 40.0956 75.5409 40.3824 75.4792C40.6632 75.4188 40.8869 75.3462 41.0261 75.2972C41.1615 75.2495 41.2689 75.2053 41.2982 75.1934C41.3079 75.1894 41.3375 75.1771 41.3261 75.1819C41.3258 75.182 41.3224 75.1834 41.3173 75.1855C41.3121 75.1876 41.3043 75.1908 41.2945 75.1946C41.2171 75.2255 40.9973 75.3111 40.7002 75.3823C40.3905 75.4565 40.0376 75.5061 39.653 75.5061V65.5061C39.1797 65.5061 38.7492 65.5668 38.3702 65.6576C38.0036 65.7454 37.7227 65.8532 37.5896 65.9063C37.5572 65.9192 37.5306 65.9301 37.5174 65.9356C37.5116 65.938 37.5044 65.941 37.5038 65.9412C37.5014 65.9422 37.5032 65.9414 37.5064 65.9401C37.5103 65.9385 37.5934 65.904 37.7052 65.8647C37.8208 65.824 38.0216 65.7583 38.2799 65.7027C38.544 65.6459 38.8903 65.5948 39.2977 65.5948V75.5948ZM43.1886 74.0416C43.0496 74.1806 42.9063 74.3062 42.7619 74.4189C42.6179 74.5311 42.4832 74.6226 42.3659 74.6957C42.2508 74.7676 42.1551 74.8201 42.0961 74.8514C42.0448 74.8786 42.0012 74.9001 42.0224 74.8895C42.0261 74.8876 42.0929 74.8545 42.1689 74.8141C42.252 74.7698 42.3714 74.7038 42.51 74.6168C42.6508 74.5285 42.8084 74.4206 42.9748 74.29C43.1417 74.1588 43.3069 74.0131 43.4676 73.8513L36.3719 66.8049C36.5103 66.6655 36.6534 66.5392 36.7981 66.4256C36.9423 66.3123 37.0777 66.2198 37.1962 66.1455C37.3126 66.0724 37.4097 66.0189 37.4706 65.9865C37.5244 65.9579 37.5689 65.9359 37.5504 65.9452C37.5493 65.9457 37.4835 65.9783 37.4099 66.0174C37.3287 66.0604 37.2108 66.1254 37.0734 66.2111C36.9339 66.2982 36.7769 66.4048 36.6108 66.5344C36.4441 66.6645 36.2787 66.8094 36.1175 66.9706L43.1886 74.0416ZM44.2024 72.9085C44.5076 72.402 45.4543 70.8361 45.4543 68.8167H35.4543C35.4543 68.2663 35.5875 67.8955 35.6322 67.7814C35.6787 67.6626 35.7051 67.6347 35.637 67.7477L44.2024 72.9085ZM35.9822 66.5806L35.9822 66.5807L44.9265 71.0528L44.9265 71.0528L35.9822 66.5806Z" fill="white" mask="url(#path-23-inside-6_21_115)"/>
<mask id="path-25-inside-7_21_115" fill="white">
<path d="M42.6764 74.3292C42.321 73.9738 41.8763 73.7065 41.343 73.7065C41.0763 73.7065 40.8096 73.7065 40.5429 73.7952C40.2763 73.8839 40.0983 73.9732 39.9203 74.1506C39.7423 74.3286 39.5649 74.506 39.4756 74.684C40.6316 75.0393 41.8763 75.3066 43.1211 75.484C43.1211 75.306 43.1211 75.2173 43.0324 75.0393C43.0318 74.7739 42.8544 74.5959 42.6764 74.3292Z"/>
</mask>
<path d="M42.6764 74.3292C42.321 73.9738 41.8763 73.7065 41.343 73.7065C41.0763 73.7065 40.8096 73.7065 40.5429 73.7952C40.2763 73.8839 40.0983 73.9732 39.9203 74.1506C39.7423 74.3286 39.5649 74.506 39.4756 74.684C40.6316 75.0393 41.8763 75.3066 43.1211 75.484C43.1211 75.306 43.1211 75.2173 43.0324 75.0393C43.0318 74.7739 42.8544 74.5959 42.6764 74.3292Z" fill="white"/>
<path d="M39.9203 74.1506L36.3909 70.6089L36.3847 70.6151L39.9203 74.1506ZM39.4756 74.684L35.0066 72.4417L32.3552 77.726L38.0064 79.4632L39.4756 74.684ZM43.1211 75.484L42.4157 80.434L48.1211 81.247V75.484H43.1211ZM43.0324 75.0393L38.0324 75.051L38.0351 76.2215L38.5571 77.2691L43.0324 75.0393ZM46.2119 70.7937C45.3141 69.8958 43.6726 68.7065 41.343 68.7065V78.7065C40.08 78.7065 39.328 78.0518 39.1409 77.8647L46.2119 70.7937ZM41.343 68.7065C41.1889 68.7065 40.1183 68.6672 38.9651 69.0507L42.1208 78.5397C41.7761 78.6544 41.4974 78.6888 41.3572 78.7004C41.3223 78.7033 41.2947 78.7049 41.2766 78.7057C41.2585 78.7066 41.2478 78.7068 41.2469 78.7068C41.2463 78.7068 41.2522 78.7067 41.269 78.7066C41.2872 78.7065 41.3075 78.7065 41.343 78.7065V68.7065ZM38.9651 69.0507C38.2868 69.2763 37.3164 69.6867 36.3909 70.6089L43.4496 77.6923C43.222 77.9191 42.9426 78.1349 42.626 78.3107C42.3457 78.4664 42.1329 78.5357 42.1208 78.5397L38.9651 69.0507ZM36.3847 70.6151C36.3209 70.6789 36.1093 70.8876 35.9022 71.1243C35.7026 71.3524 35.3247 71.8076 35.0066 72.4417L43.9446 76.9262C43.8218 77.1709 43.7002 77.3542 43.6166 77.4704C43.532 77.588 43.4622 77.6702 43.4271 77.7103C43.3914 77.7511 43.3706 77.7721 43.3793 77.7631C43.3901 77.752 43.4063 77.7356 43.4558 77.6861L36.3847 70.6151ZM38.0064 79.4632C39.4431 79.9049 40.9464 80.2246 42.4157 80.434L43.8265 70.534C42.8062 70.3886 41.8201 70.1738 40.9448 69.9047L38.0064 79.4632ZM48.1211 75.484C48.1211 75.464 48.1218 75.3234 48.116 75.1728C48.1094 74.9996 48.0927 74.7446 48.0423 74.4415C47.9301 73.7671 47.7131 73.2219 47.5077 72.8095L38.5571 77.2691C38.4404 77.0348 38.2677 76.6229 38.1777 76.0818C38.1384 75.8454 38.1272 75.6571 38.1234 75.5561C38.1204 75.4778 38.1211 75.415 38.1211 75.484H48.1211ZM48.0324 75.0276C48.0292 73.6677 47.5374 72.6601 47.2073 72.1105C47.0619 71.8683 46.9195 71.6705 46.8757 71.6092C46.8023 71.5065 46.8229 71.5352 46.8352 71.5535L38.5176 77.1049C38.6189 77.2566 38.7284 77.4076 38.7384 77.4215C38.7779 77.4768 38.7133 77.3902 38.6345 77.259C38.4378 76.9314 38.035 76.1455 38.0324 75.051L48.0324 75.0276Z" fill="white" mask="url(#path-25-inside-7_21_115)"/>
</svg>
