<svg width="68" height="60" viewBox="0 0 68 60" fill="none" xmlns="http://www.w3.org/2000/svg">
<mask id="path-1-outside-1_21_211" maskUnits="userSpaceOnUse" x="0" y="0" width="68" height="60" fill="black">
<rect fill="white" width="68" height="60"/>
<path d="M66.9427 57.8841H65.4628L54.2526 31.9509C54.164 31.7445 53.994 31.5832 53.785 31.5033C53.5771 31.4234 53.3431 31.4316 53.1383 31.5258L41.3622 36.9945H41.2506C41.7064 36.7727 42.1534 36.5372 42.5836 36.275C45.8717 34.2691 48.3692 31.0962 49.4962 27.3358L52.8571 27.0214C53.2857 26.982 53.6124 26.623 53.6124 26.1923L53.613 18.2396C53.613 17.8094 53.2847 17.4489 52.8545 17.4105L49.0517 17.0669C48.3538 15.3063 47.3413 13.703 46.0924 12.3193L48.7552 9.65594L52.2046 13.1049C52.3684 13.2673 52.5805 13.3487 52.794 13.3487C53.006 13.3487 53.2195 13.2673 53.3819 13.1049C53.7071 12.7797 53.7071 12.2528 53.3819 11.9276L49.9325 8.47864L50.843 7.56815L52.8647 9.58832C53.0271 9.75066 53.2406 9.83208 53.4526 9.83208C53.6662 9.83208 53.8782 9.75066 54.042 9.58832C54.3657 9.26314 54.3657 8.73621 54.042 8.41102L52.0203 6.39085L52.833 5.57867C53.1566 5.25349 53.1566 4.72655 52.833 4.40137C52.5078 4.0767 51.9814 4.0767 51.6557 4.40137L50.843 5.21354L48.8228 3.19336C48.4976 2.86869 47.9712 2.86869 47.6455 3.19336C47.3219 3.51855 47.3219 4.04548 47.6455 4.37067L49.6657 6.39085L48.7552 7.30134L45.3067 3.85288C44.9816 3.52821 44.4551 3.52821 44.1294 3.85288C43.8058 4.17806 43.8058 4.705 44.1294 5.03018L47.5788 8.47864L44.9134 11.1441C43.8795 10.2167 42.7262 9.41938 41.4748 8.78894L41.3017 4.48994C41.2848 4.0434 40.9176 3.69107 40.47 3.69107H28.906C28.7677 3.69107 28.6453 3.73357 28.5301 3.79246C27.3472 2.10671 25.393 1 23.1834 1C19.5818 1 16.6512 3.92972 16.6512 7.53169C16.6512 10.5673 18.7349 13.1186 21.5447 13.8484C20.8365 14.8603 20.2297 15.9475 19.7723 17.1145L16.4887 17.411C16.0601 17.4499 15.7319 17.8094 15.7319 18.2401V26.1928C15.7319 26.6225 16.0586 26.982 16.4857 27.0219L19.3262 27.2872C20.4692 31.1571 23.0646 34.398 26.4739 36.4029L15.972 31.5263C15.7672 31.4315 15.5332 31.4228 15.3253 31.5037C15.1148 31.5836 14.9463 31.7454 14.8562 31.9513L3.64911 57.8846H1.83318C1.37281 57.8846 1 58.2574 1 58.7173C1 59.1766 1.37281 59.5499 1.83318 59.5499H4.19184H4.19492H9.13039C9.58923 59.5499 9.96204 59.1771 9.96204 58.7173C9.96204 58.2579 9.58923 57.8846 9.13039 57.8846H5.46274L13.0361 40.3624V49.1428C13.0361 49.6021 13.4089 49.9754 13.8678 49.9754H26.9317L25.8547 54.1675C25.7902 54.4168 25.846 54.6816 26.0038 54.8849C26.16 55.0882 26.4037 55.207 26.6608 55.207H33.8562V57.8842H29.7466C29.2863 57.8842 28.9135 58.257 28.9135 58.7169C28.9135 59.1762 29.2863 59.5496 29.7466 59.5496H39.6306C40.0894 59.5496 40.4622 59.1768 40.4622 58.7169C40.4622 58.2576 40.0894 57.8842 39.6306 57.8842H35.521V55.207H42.7164H42.7313C43.1916 55.207 43.5644 54.8342 43.5644 54.3743C43.5644 54.2479 43.5358 54.129 43.4861 54.022L42.4481 49.9755H55.509C55.9693 49.9755 56.3421 49.6027 56.3421 49.1428V40.9791L63.6491 57.8839H59.6461C59.1873 57.8839 58.8145 58.2567 58.8145 58.7165C58.8145 59.1759 59.1873 59.5492 59.6461 59.5492H64.9146H64.9177H66.944C67.4044 59.5492 67.7772 59.1764 67.7772 58.7165C67.7762 58.2567 67.4023 57.8844 66.9425 57.8844L66.9427 57.8841ZM42.5066 34.3447L42.251 28.0112L47.6941 27.5032C46.7104 30.2863 44.8782 32.6728 42.5067 34.3448L42.5066 34.3447ZM49.6225 18.7889L51.9484 18.9988V25.4343L49.9068 25.6253L48.1784 25.7866L42.1834 26.3458L41.8511 18.0868L47.843 18.6281L49.6225 18.7889ZM43.7324 12.3238C44.1477 12.6925 44.5436 13.0812 44.9138 13.496C45.8182 14.5099 46.5812 15.6513 47.166 16.8942L41.782 16.4077L41.5536 10.7241C42.3324 11.186 43.0585 11.7273 43.7325 12.3239L43.7324 12.3238ZM53.0633 33.3947L54.6174 36.9927H45.3153L53.0633 33.3947ZM18.3151 7.52963C18.3151 4.84624 20.4992 2.66324 23.1831 2.66324C25.6048 2.66324 27.6122 4.44326 27.9819 6.76207C28.0223 7.013 28.0494 7.26802 28.0494 7.53021C28.0494 7.8641 28.0151 8.19081 27.9501 8.50677C27.9368 8.5677 27.9112 8.52366 27.9112 8.52366C27.3351 8.78637 26.7841 9.09312 26.2489 9.42239L25.5719 8.74695C25.7598 8.37977 25.8761 7.97112 25.8761 7.53176C25.8761 6.04566 24.6675 4.83657 23.1805 4.83657C21.6955 4.83657 20.4864 6.04562 20.4864 7.53176C20.4864 9.01681 21.6949 10.2254 23.1805 10.2254C23.6194 10.2254 24.029 10.1102 24.3947 9.92273L24.8581 10.3862C24.0849 10.9858 23.3597 11.6459 22.7074 12.3741C20.2467 12.1344 18.3151 10.0538 18.3151 7.52974L18.3151 7.52963ZM27.5937 16.4052L21.653 16.9419C22.1343 15.9028 22.7396 14.9335 23.4463 14.0496C24.6421 12.5563 26.1317 11.3104 27.8354 10.4056L27.7637 12.1784L27.5937 16.4052ZM22.5946 8.11904L23.0176 8.54356C22.5286 8.46419 22.1527 8.04223 22.1527 7.53115C22.1527 6.96274 22.6146 6.50031 23.182 6.50031C23.6936 6.50031 24.1166 6.8767 24.1959 7.36728L23.7714 6.94225C23.4462 6.61707 22.9198 6.61758 22.5941 6.94225C22.2684 7.26692 22.2684 7.79386 22.5946 8.11904H22.5946ZM18.9317 25.577L17.3959 25.4336V18.9981L19.2128 18.8338L20.9707 18.675L27.5266 18.0825L27.1927 26.3472L20.6456 25.7357L18.9317 25.577ZM21.1342 27.4548L27.1262 28.014L26.8568 34.6932C24.217 33.0038 22.1825 30.4618 21.1343 27.4548L21.1342 27.4548ZM16.0476 33.395L23.7951 36.9929H14.4914L16.0476 33.395ZM21.0917 48.3097H14.7014V38.6578H21.0917V48.3097ZM33.8556 53.5417H27.7346L28.6507 49.9745H33.8556L33.8556 53.5417ZM33.8556 48.3097H22.7565L22.756 38.6578H27.5338H27.5369H33.8555L33.8556 48.3097ZM34.6888 32.0526C34.2284 32.0526 33.8556 32.4254 33.8556 32.8853V36.9016C31.9429 36.8238 30.1322 36.3568 28.4879 35.588L28.8079 27.6455L29.2427 16.8767L29.5336 9.65568L29.5653 8.87986L29.6058 7.85773L29.6529 6.67889L29.7072 5.35456H39.6725L39.7811 8.05841L39.8528 9.85533L40.1339 16.8126L40.5728 27.6929L40.8811 35.3338C39.2521 36.1798 37.4409 36.7176 35.521 36.8691V32.885C35.5205 32.4251 35.1476 32.0523 34.6888 32.0523L34.6888 32.0526ZM35.5204 53.5417V49.9745H40.7268L41.6414 53.5417H35.5204ZM46.62 48.3097H35.5209L35.5204 38.6578H41.5739H41.5769H46.6195L46.62 48.3097ZM54.6767 48.3097H48.2848V38.6578H54.6767V48.3097Z"/>
</mask>
<path d="M66.9427 57.8841H65.4628L54.2526 31.9509C54.164 31.7445 53.994 31.5832 53.785 31.5033C53.5771 31.4234 53.3431 31.4316 53.1383 31.5258L41.3622 36.9945H41.2506C41.7064 36.7727 42.1534 36.5372 42.5836 36.275C45.8717 34.2691 48.3692 31.0962 49.4962 27.3358L52.8571 27.0214C53.2857 26.982 53.6124 26.623 53.6124 26.1923L53.613 18.2396C53.613 17.8094 53.2847 17.4489 52.8545 17.4105L49.0517 17.0669C48.3538 15.3063 47.3413 13.703 46.0924 12.3193L48.7552 9.65594L52.2046 13.1049C52.3684 13.2673 52.5805 13.3487 52.794 13.3487C53.006 13.3487 53.2195 13.2673 53.3819 13.1049C53.7071 12.7797 53.7071 12.2528 53.3819 11.9276L49.9325 8.47864L50.843 7.56815L52.8647 9.58832C53.0271 9.75066 53.2406 9.83208 53.4526 9.83208C53.6662 9.83208 53.8782 9.75066 54.042 9.58832C54.3657 9.26314 54.3657 8.73621 54.042 8.41102L52.0203 6.39085L52.833 5.57867C53.1566 5.25349 53.1566 4.72655 52.833 4.40137C52.5078 4.0767 51.9814 4.0767 51.6557 4.40137L50.843 5.21354L48.8228 3.19336C48.4976 2.86869 47.9712 2.86869 47.6455 3.19336C47.3219 3.51855 47.3219 4.04548 47.6455 4.37067L49.6657 6.39085L48.7552 7.30134L45.3067 3.85288C44.9816 3.52821 44.4551 3.52821 44.1294 3.85288C43.8058 4.17806 43.8058 4.705 44.1294 5.03018L47.5788 8.47864L44.9134 11.1441C43.8795 10.2167 42.7262 9.41938 41.4748 8.78894L41.3017 4.48994C41.2848 4.0434 40.9176 3.69107 40.47 3.69107H28.906C28.7677 3.69107 28.6453 3.73357 28.5301 3.79246C27.3472 2.10671 25.393 1 23.1834 1C19.5818 1 16.6512 3.92972 16.6512 7.53169C16.6512 10.5673 18.7349 13.1186 21.5447 13.8484C20.8365 14.8603 20.2297 15.9475 19.7723 17.1145L16.4887 17.411C16.0601 17.4499 15.7319 17.8094 15.7319 18.2401V26.1928C15.7319 26.6225 16.0586 26.982 16.4857 27.0219L19.3262 27.2872C20.4692 31.1571 23.0646 34.398 26.4739 36.4029L15.972 31.5263C15.7672 31.4315 15.5332 31.4228 15.3253 31.5037C15.1148 31.5836 14.9463 31.7454 14.8562 31.9513L3.64911 57.8846H1.83318C1.37281 57.8846 1 58.2574 1 58.7173C1 59.1766 1.37281 59.5499 1.83318 59.5499H4.19184H4.19492H9.13039C9.58923 59.5499 9.96204 59.1771 9.96204 58.7173C9.96204 58.2579 9.58923 57.8846 9.13039 57.8846H5.46274L13.0361 40.3624V49.1428C13.0361 49.6021 13.4089 49.9754 13.8678 49.9754H26.9317L25.8547 54.1675C25.7902 54.4168 25.846 54.6816 26.0038 54.8849C26.16 55.0882 26.4037 55.207 26.6608 55.207H33.8562V57.8842H29.7466C29.2863 57.8842 28.9135 58.257 28.9135 58.7169C28.9135 59.1762 29.2863 59.5496 29.7466 59.5496H39.6306C40.0894 59.5496 40.4622 59.1768 40.4622 58.7169C40.4622 58.2576 40.0894 57.8842 39.6306 57.8842H35.521V55.207H42.7164H42.7313C43.1916 55.207 43.5644 54.8342 43.5644 54.3743C43.5644 54.2479 43.5358 54.129 43.4861 54.022L42.4481 49.9755H55.509C55.9693 49.9755 56.3421 49.6027 56.3421 49.1428V40.9791L63.6491 57.8839H59.6461C59.1873 57.8839 58.8145 58.2567 58.8145 58.7165C58.8145 59.1759 59.1873 59.5492 59.6461 59.5492H64.9146H64.9177H66.944C67.4044 59.5492 67.7772 59.1764 67.7772 58.7165C67.7762 58.2567 67.4023 57.8844 66.9425 57.8844L66.9427 57.8841ZM42.5066 34.3447L42.251 28.0112L47.6941 27.5032C46.7104 30.2863 44.8782 32.6728 42.5067 34.3448L42.5066 34.3447ZM49.6225 18.7889L51.9484 18.9988V25.4343L49.9068 25.6253L48.1784 25.7866L42.1834 26.3458L41.8511 18.0868L47.843 18.6281L49.6225 18.7889ZM43.7324 12.3238C44.1477 12.6925 44.5436 13.0812 44.9138 13.496C45.8182 14.5099 46.5812 15.6513 47.166 16.8942L41.782 16.4077L41.5536 10.7241C42.3324 11.186 43.0585 11.7273 43.7325 12.3239L43.7324 12.3238ZM53.0633 33.3947L54.6174 36.9927H45.3153L53.0633 33.3947ZM18.3151 7.52963C18.3151 4.84624 20.4992 2.66324 23.1831 2.66324C25.6048 2.66324 27.6122 4.44326 27.9819 6.76207C28.0223 7.013 28.0494 7.26802 28.0494 7.53021C28.0494 7.8641 28.0151 8.19081 27.9501 8.50677C27.9368 8.5677 27.9112 8.52366 27.9112 8.52366C27.3351 8.78637 26.7841 9.09312 26.2489 9.42239L25.5719 8.74695C25.7598 8.37977 25.8761 7.97112 25.8761 7.53176C25.8761 6.04566 24.6675 4.83657 23.1805 4.83657C21.6955 4.83657 20.4864 6.04562 20.4864 7.53176C20.4864 9.01681 21.6949 10.2254 23.1805 10.2254C23.6194 10.2254 24.029 10.1102 24.3947 9.92273L24.8581 10.3862C24.0849 10.9858 23.3597 11.6459 22.7074 12.3741C20.2467 12.1344 18.3151 10.0538 18.3151 7.52974L18.3151 7.52963ZM27.5937 16.4052L21.653 16.9419C22.1343 15.9028 22.7396 14.9335 23.4463 14.0496C24.6421 12.5563 26.1317 11.3104 27.8354 10.4056L27.7637 12.1784L27.5937 16.4052ZM22.5946 8.11904L23.0176 8.54356C22.5286 8.46419 22.1527 8.04223 22.1527 7.53115C22.1527 6.96274 22.6146 6.50031 23.182 6.50031C23.6936 6.50031 24.1166 6.8767 24.1959 7.36728L23.7714 6.94225C23.4462 6.61707 22.9198 6.61758 22.5941 6.94225C22.2684 7.26692 22.2684 7.79386 22.5946 8.11904H22.5946ZM18.9317 25.577L17.3959 25.4336V18.9981L19.2128 18.8338L20.9707 18.675L27.5266 18.0825L27.1927 26.3472L20.6456 25.7357L18.9317 25.577ZM21.1342 27.4548L27.1262 28.014L26.8568 34.6932C24.217 33.0038 22.1825 30.4618 21.1343 27.4548L21.1342 27.4548ZM16.0476 33.395L23.7951 36.9929H14.4914L16.0476 33.395ZM21.0917 48.3097H14.7014V38.6578H21.0917V48.3097ZM33.8556 53.5417H27.7346L28.6507 49.9745H33.8556L33.8556 53.5417ZM33.8556 48.3097H22.7565L22.756 38.6578H27.5338H27.5369H33.8555L33.8556 48.3097ZM34.6888 32.0526C34.2284 32.0526 33.8556 32.4254 33.8556 32.8853V36.9016C31.9429 36.8238 30.1322 36.3568 28.4879 35.588L28.8079 27.6455L29.2427 16.8767L29.5336 9.65568L29.5653 8.87986L29.6058 7.85773L29.6529 6.67889L29.7072 5.35456H39.6725L39.7811 8.05841L39.8528 9.85533L40.1339 16.8126L40.5728 27.6929L40.8811 35.3338C39.2521 36.1798 37.4409 36.7176 35.521 36.8691V32.885C35.5205 32.4251 35.1476 32.0523 34.6888 32.0523L34.6888 32.0526ZM35.5204 53.5417V49.9745H40.7268L41.6414 53.5417H35.5204ZM46.62 48.3097H35.5209L35.5204 38.6578H41.5739H41.5769H46.6195L46.62 48.3097ZM54.6767 48.3097H48.2848V38.6578H54.6767V48.3097Z" fill="white"/>
<path d="M66.9427 57.8841H65.4628L54.2526 31.9509C54.164 31.7445 53.994 31.5832 53.785 31.5033C53.5771 31.4234 53.3431 31.4316 53.1383 31.5258L41.3622 36.9945H41.2506C41.7064 36.7727 42.1534 36.5372 42.5836 36.275C45.8717 34.2691 48.3692 31.0962 49.4962 27.3358L52.8571 27.0214C53.2857 26.982 53.6124 26.623 53.6124 26.1923L53.613 18.2396C53.613 17.8094 53.2847 17.4489 52.8545 17.4105L49.0517 17.0669C48.3538 15.3063 47.3413 13.703 46.0924 12.3193L48.7552 9.65594L52.2046 13.1049C52.3684 13.2673 52.5805 13.3487 52.794 13.3487C53.006 13.3487 53.2195 13.2673 53.3819 13.1049C53.7071 12.7797 53.7071 12.2528 53.3819 11.9276L49.9325 8.47864L50.843 7.56815L52.8647 9.58832C53.0271 9.75066 53.2406 9.83208 53.4526 9.83208C53.6662 9.83208 53.8782 9.75066 54.042 9.58832C54.3657 9.26314 54.3657 8.73621 54.042 8.41102L52.0203 6.39085L52.833 5.57867C53.1566 5.25349 53.1566 4.72655 52.833 4.40137C52.5078 4.0767 51.9814 4.0767 51.6557 4.40137L50.843 5.21354L48.8228 3.19336C48.4976 2.86869 47.9712 2.86869 47.6455 3.19336C47.3219 3.51855 47.3219 4.04548 47.6455 4.37067L49.6657 6.39085L48.7552 7.30134L45.3067 3.85288C44.9816 3.52821 44.4551 3.52821 44.1294 3.85288C43.8058 4.17806 43.8058 4.705 44.1294 5.03018L47.5788 8.47864L44.9134 11.1441C43.8795 10.2167 42.7262 9.41938 41.4748 8.78894L41.3017 4.48994C41.2848 4.0434 40.9176 3.69107 40.47 3.69107H28.906C28.7677 3.69107 28.6453 3.73357 28.5301 3.79246C27.3472 2.10671 25.393 1 23.1834 1C19.5818 1 16.6512 3.92972 16.6512 7.53169C16.6512 10.5673 18.7349 13.1186 21.5447 13.8484C20.8365 14.8603 20.2297 15.9475 19.7723 17.1145L16.4887 17.411C16.0601 17.4499 15.7319 17.8094 15.7319 18.2401V26.1928C15.7319 26.6225 16.0586 26.982 16.4857 27.0219L19.3262 27.2872C20.4692 31.1571 23.0646 34.398 26.4739 36.4029L15.972 31.5263C15.7672 31.4315 15.5332 31.4228 15.3253 31.5037C15.1148 31.5836 14.9463 31.7454 14.8562 31.9513L3.64911 57.8846H1.83318C1.37281 57.8846 1 58.2574 1 58.7173C1 59.1766 1.37281 59.5499 1.83318 59.5499H4.19184H4.19492H9.13039C9.58923 59.5499 9.96204 59.1771 9.96204 58.7173C9.96204 58.2579 9.58923 57.8846 9.13039 57.8846H5.46274L13.0361 40.3624V49.1428C13.0361 49.6021 13.4089 49.9754 13.8678 49.9754H26.9317L25.8547 54.1675C25.7902 54.4168 25.846 54.6816 26.0038 54.8849C26.16 55.0882 26.4037 55.207 26.6608 55.207H33.8562V57.8842H29.7466C29.2863 57.8842 28.9135 58.257 28.9135 58.7169C28.9135 59.1762 29.2863 59.5496 29.7466 59.5496H39.6306C40.0894 59.5496 40.4622 59.1768 40.4622 58.7169C40.4622 58.2576 40.0894 57.8842 39.6306 57.8842H35.521V55.207H42.7164H42.7313C43.1916 55.207 43.5644 54.8342 43.5644 54.3743C43.5644 54.2479 43.5358 54.129 43.4861 54.022L42.4481 49.9755H55.509C55.9693 49.9755 56.3421 49.6027 56.3421 49.1428V40.9791L63.6491 57.8839H59.6461C59.1873 57.8839 58.8145 58.2567 58.8145 58.7165C58.8145 59.1759 59.1873 59.5492 59.6461 59.5492H64.9146H64.9177H66.944C67.4044 59.5492 67.7772 59.1764 67.7772 58.7165C67.7762 58.2567 67.4023 57.8844 66.9425 57.8844L66.9427 57.8841ZM42.5066 34.3447L42.251 28.0112L47.6941 27.5032C46.7104 30.2863 44.8782 32.6728 42.5067 34.3448L42.5066 34.3447ZM49.6225 18.7889L51.9484 18.9988V25.4343L49.9068 25.6253L48.1784 25.7866L42.1834 26.3458L41.8511 18.0868L47.843 18.6281L49.6225 18.7889ZM43.7324 12.3238C44.1477 12.6925 44.5436 13.0812 44.9138 13.496C45.8182 14.5099 46.5812 15.6513 47.166 16.8942L41.782 16.4077L41.5536 10.7241C42.3324 11.186 43.0585 11.7273 43.7325 12.3239L43.7324 12.3238ZM53.0633 33.3947L54.6174 36.9927H45.3153L53.0633 33.3947ZM18.3151 7.52963C18.3151 4.84624 20.4992 2.66324 23.1831 2.66324C25.6048 2.66324 27.6122 4.44326 27.9819 6.76207C28.0223 7.013 28.0494 7.26802 28.0494 7.53021C28.0494 7.8641 28.0151 8.19081 27.9501 8.50677C27.9368 8.5677 27.9112 8.52366 27.9112 8.52366C27.3351 8.78637 26.7841 9.09312 26.2489 9.42239L25.5719 8.74695C25.7598 8.37977 25.8761 7.97112 25.8761 7.53176C25.8761 6.04566 24.6675 4.83657 23.1805 4.83657C21.6955 4.83657 20.4864 6.04562 20.4864 7.53176C20.4864 9.01681 21.6949 10.2254 23.1805 10.2254C23.6194 10.2254 24.029 10.1102 24.3947 9.92273L24.8581 10.3862C24.0849 10.9858 23.3597 11.6459 22.7074 12.3741C20.2467 12.1344 18.3151 10.0538 18.3151 7.52974L18.3151 7.52963ZM27.5937 16.4052L21.653 16.9419C22.1343 15.9028 22.7396 14.9335 23.4463 14.0496C24.6421 12.5563 26.1317 11.3104 27.8354 10.4056L27.7637 12.1784L27.5937 16.4052ZM22.5946 8.11904L23.0176 8.54356C22.5286 8.46419 22.1527 8.04223 22.1527 7.53115C22.1527 6.96274 22.6146 6.50031 23.182 6.50031C23.6936 6.50031 24.1166 6.8767 24.1959 7.36728L23.7714 6.94225C23.4462 6.61707 22.9198 6.61758 22.5941 6.94225C22.2684 7.26692 22.2684 7.79386 22.5946 8.11904H22.5946ZM18.9317 25.577L17.3959 25.4336V18.9981L19.2128 18.8338L20.9707 18.675L27.5266 18.0825L27.1927 26.3472L20.6456 25.7357L18.9317 25.577ZM21.1342 27.4548L27.1262 28.014L26.8568 34.6932C24.217 33.0038 22.1825 30.4618 21.1343 27.4548L21.1342 27.4548ZM16.0476 33.395L23.7951 36.9929H14.4914L16.0476 33.395ZM21.0917 48.3097H14.7014V38.6578H21.0917V48.3097ZM33.8556 53.5417H27.7346L28.6507 49.9745H33.8556L33.8556 53.5417ZM33.8556 48.3097H22.7565L22.756 38.6578H27.5338H27.5369H33.8555L33.8556 48.3097ZM34.6888 32.0526C34.2284 32.0526 33.8556 32.4254 33.8556 32.8853V36.9016C31.9429 36.8238 30.1322 36.3568 28.4879 35.588L28.8079 27.6455L29.2427 16.8767L29.5336 9.65568L29.5653 8.87986L29.6058 7.85773L29.6529 6.67889L29.7072 5.35456H39.6725L39.7811 8.05841L39.8528 9.85533L40.1339 16.8126L40.5728 27.6929L40.8811 35.3338C39.2521 36.1798 37.4409 36.7176 35.521 36.8691V32.885C35.5205 32.4251 35.1476 32.0523 34.6888 32.0523L34.6888 32.0526ZM35.5204 53.5417V49.9745H40.7268L41.6414 53.5417H35.5204ZM46.62 48.3097H35.5209L35.5204 38.6578H41.5739H41.5769H46.6195L46.62 48.3097ZM54.6767 48.3097H48.2848V38.6578H54.6767V48.3097Z" stroke="white" stroke-width="0.4" mask="url(#path-1-outside-1_21_211)"/>
</svg>
