<svg width="62" height="58" viewBox="0 0 62 58" fill="none" xmlns="http://www.w3.org/2000/svg">
<path d="M45.4666 24.8571H16.5333C7.41696 24.8571 0 32.2912 0 41.4286C0 50.5659 7.41696 58 16.5333 58C20.5868 58 24.4336 56.5352 27.459 53.8571H34.541C37.5663 56.5357 41.4131 58 45.4667 58C54.583 58 62 50.5659 62 41.4286C62 32.2912 54.5829 24.8571 45.4666 24.8571ZM45.4666 53.8571C42.2112 53.8571 39.1323 52.5949 36.7982 50.3047C36.4121 49.9265 35.8931 49.7142 35.3525 49.7142H26.6475C26.1064 49.7142 25.5879 49.9265 25.2014 50.3052C22.8676 52.5949 19.7888 53.8571 16.5334 53.8571C9.69548 53.8571 4.13344 48.2818 4.13344 41.4286C4.13344 34.5753 9.69596 29 16.5334 29H45.4667C52.3046 29 57.8667 34.5753 57.8667 41.4286C57.8667 48.2818 52.3045 53.8571 45.4666 53.8571ZM22.7333 41.4286C22.7333 42.5734 21.8079 43.5 20.6666 43.5H18.6V45.5714C18.6 46.7163 17.6746 47.6429 16.5333 47.6429C15.392 47.6429 14.4666 46.7163 14.4666 45.5714V43.5H12.4C11.2587 43.5 10.3333 42.5734 10.3333 41.4286C10.3333 40.2837 11.2587 39.3571 12.4 39.3571H14.4666V37.2857C14.4666 36.1409 15.392 35.2143 16.5333 35.2143C17.6746 35.2143 18.6 36.1409 18.6 37.2857V39.3571H20.6666C21.8079 39.3571 22.7333 40.2837 22.7333 41.4286ZM43.3999 41.4286C43.3999 42.5734 42.4745 43.5 41.3333 43.5C40.192 43.5 39.2666 42.5734 39.2666 41.4286C39.2666 40.2837 40.192 39.3571 41.3333 39.3571C42.4745 39.3571 43.3999 40.2837 43.3999 41.4286ZM43.3999 37.2857C43.3999 36.1409 44.3253 35.2143 45.4666 35.2143C46.6079 35.2143 47.5332 36.1409 47.5332 37.2857C47.5332 38.4306 46.6079 39.3571 45.4666 39.3571C44.3253 39.3571 43.3999 38.4306 43.3999 37.2857ZM47.5332 45.5714C47.5332 46.7163 46.6079 47.6429 45.4666 47.6429C44.3253 47.6429 43.3999 46.7163 43.3999 45.5714C43.3999 44.4266 44.3253 43.5 45.4666 43.5C46.6079 43.5 47.5332 44.4266 47.5332 45.5714ZM51.6666 41.4286C51.6666 42.5734 50.7412 43.5 49.5999 43.5C48.4586 43.5 47.5332 42.5734 47.5332 41.4286C47.5332 40.2837 48.4586 39.3571 49.5999 39.3571C50.7412 39.3571 51.6666 40.2837 51.6666 41.4286ZM28.9333 18.6429V17.0389C28.9333 13.0416 32.6417 9.78886 37.1999 9.78886H45.4666C47.7067 9.78886 49.5999 8.36656 49.5999 6.68172V2.07143C49.5999 0.926591 50.5253 0 51.6666 0C52.8079 0 53.7332 0.926591 53.7332 2.07143V6.68172C53.7332 10.679 50.0248 13.9317 45.4666 13.9317H37.1999C34.9598 13.9317 33.0666 15.354 33.0666 17.0389V18.6429C33.0666 19.7877 32.1412 20.7143 30.9999 20.7143C29.8587 20.7143 28.9333 19.7877 28.9333 18.6429Z" fill="white"/>
</svg>
