<svg width="60" height="53" viewBox="0 0 60 53" fill="none" xmlns="http://www.w3.org/2000/svg">
<path d="M17.37 47.2921C19.9485 47.2967 22.4023 48.402 24.114 50.3299L24.3267 50.5486C24.6013 50.8346 24.898 51.0987 25.2138 51.3385C25.3413 51.4296 25.463 51.5208 25.5782 51.5937C25.8528 51.7763 26.1389 51.9407 26.4351 52.0857L26.6051 52.1645C26.7632 52.2434 26.9208 52.3103 27.0912 52.3709V52.3713C27.2997 52.4497 27.5129 52.5167 27.729 52.5718C27.8748 52.6142 28.0693 52.6689 28.3003 52.7117C28.6292 52.7765 28.9619 52.8193 29.2967 52.8392H29.7645C30.2663 52.8384 30.7673 52.7875 31.2588 52.6871C31.4534 52.6506 31.6174 52.6083 31.7025 52.5777C31.9581 52.5138 32.2094 52.4345 32.4561 52.3408H32.5107L32.8875 52.1768L33.0392 52.1039C33.3613 51.9501 33.6719 51.7734 33.9686 51.5755L34.2907 51.3508V51.3504C34.6298 51.0919 34.9468 50.8054 35.2383 50.4939L35.4388 50.2752C37.1331 48.3648 39.5687 47.2772 42.1222 47.2921H44.6011C45.4402 47.2921 46.12 46.6119 46.12 45.7732C46.12 44.9341 45.4402 44.2543 44.6011 44.2543H42.1528C38.709 44.2369 35.4271 45.713 33.1546 48.3008L33.0999 48.3614L33.0512 48.4101C32.8638 48.5991 32.6608 48.772 32.4439 48.9263L32.2616 49.0539C32.0675 49.1785 31.8645 49.2882 31.6539 49.3819L31.5568 49.4306L31.3199 49.534C31.1707 49.5895 31.0186 49.6362 30.8639 49.6739L30.6029 49.7345C30.3087 49.7942 30.0095 49.8248 29.7099 49.8256H29.4425C29.2382 49.8133 29.0352 49.787 28.8348 49.7468C28.7072 49.7468 28.6038 49.6921 28.4762 49.6557C28.3508 49.6234 28.227 49.5849 28.1058 49.54L27.8325 49.4247L27.7231 49.37C27.5405 49.2806 27.3637 49.1789 27.1946 49.0661L27.0366 48.9081C26.842 48.7606 26.6589 48.5978 26.4898 48.422L26.3746 48.3003L26.3741 48.3008C24.0831 45.7376 20.8079 44.2725 17.3701 44.2725H3.03807V9.70214H6.82938L6.82895 38.3064C6.82895 38.7091 6.98915 39.0956 7.27395 39.3804C7.55874 39.6652 7.94525 39.8254 8.34786 39.8254H17.7957C21.9337 39.83 25.8738 41.5977 28.6285 44.686C29.1871 45.3115 30.1475 45.3662 30.773 44.8072C31.399 44.2486 31.4532 43.2883 30.8947 42.6627C27.5691 38.9179 22.8039 36.7693 17.7962 36.757H9.86732V3.05563H17.7962C21.7355 3.05945 25.5048 4.66231 28.24 7.49714V10.9664C28.24 11.8051 28.9202 12.4853 29.759 12.4853C30.5981 12.4853 31.2779 11.8051 31.2779 10.9664V7.49128C34.0135 4.65645 37.7828 3.05368 41.7221 3.04977H49.657V15.6632C49.657 16.5019 50.3368 17.1821 51.1759 17.1821C52.0146 17.1821 52.6948 16.5019 52.6948 15.6632V9.70281H56.5039V35.8769C56.5039 36.716 57.1841 37.3958 58.0228 37.3958C58.8619 37.3958 59.5417 36.716 59.5417 35.8769V8.9618C59.5417 8.35279 59.2997 7.76837 58.8691 7.33776C58.4386 6.90715 57.8546 6.66519 57.2451 6.66519H52.6948V1.51891C52.6948 1.1163 52.5346 0.729792 52.2498 0.444997C51.965 0.160202 51.5785 0 51.1759 0H41.728C37.2896 0.00805217 33.0181 1.69434 29.771 4.72077C26.5166 1.69695 22.2383 0.0170334 17.7955 0.0182268H8.34763C7.51613 0.0182268 6.83892 0.687415 6.82872 1.51891V6.64696H2.29663C1.68423 6.64696 1.09723 6.8915 0.666294 7.32589C0.234859 7.76071 -0.00500901 8.34938 7.93331e-05 8.96176V45.0022C7.93331e-05 45.6112 0.242074 46.1956 0.672652 46.6262C1.10323 47.0569 1.68724 47.2988 2.29669 47.2988L17.37 47.2921Z" fill="white"/>
<path d="M49.4616 33.2031C51.467 29.31 51.4841 24.6915 49.5074 20.7839C47.5308 16.8759 43.8004 14.1531 39.4764 13.4618C35.1524 12.7702 30.7587 14.1942 27.6626 17.2905C24.5663 20.3872 23.1423 24.7808 23.8335 29.1043C24.5251 33.4283 27.2481 37.1591 31.1555 39.1353C35.0634 41.112 39.682 41.0949 43.5748 39.0895L52.433 47.9478C53.4849 49.0005 55.0182 49.4125 56.4558 49.0281C57.8933 48.6437 59.0164 47.5214 59.4024 46.0843C59.7881 44.6472 59.3783 43.1135 58.3264 42.0607L49.4616 33.2031ZM29.8189 34.4605C27.4841 32.1258 26.3682 28.8384 26.7993 25.5649C27.2303 22.291 29.159 19.4046 32.0184 17.7538C34.8777 16.1027 38.3423 15.8759 41.3929 17.1393C44.4434 18.4031 46.7324 21.0133 47.5867 24.2028C48.4411 27.392 47.7639 30.7971 45.7538 33.4167C43.7437 36.0359 40.6299 37.5713 37.3281 37.5713C34.5098 37.5793 31.8056 36.4592 29.8188 34.4605L29.8189 34.4605ZM56.1752 45.7981C55.7294 46.2223 55.0293 46.2223 54.5834 45.7981L46.1747 37.3652C46.4603 37.1224 46.7396 36.8732 47.0071 36.6058C47.2745 36.3384 47.5237 36.0591 47.7665 35.7734L56.1752 44.2063C56.3867 44.4174 56.5058 44.7034 56.5058 45.0022C56.5058 45.301 56.3867 45.5875 56.1752 45.7981L56.1752 45.7981Z" fill="white"/>
</svg>
