<svg width="61" height="63" viewBox="0 0 61 63" fill="none" xmlns="http://www.w3.org/2000/svg">
<path fill-rule="evenodd" clip-rule="evenodd" d="M35.2711 2.92965C35.091 1.3727 33.8265 0.166836 32.2633 0.0583623H32.2524C30.9435 -0.0201217 29.6316 -0.0201216 28.3242 0.0624453H28.3174C26.7567 0.169511 25.4938 1.37539 25.3137 2.92967C25.178 4.06792 24.9993 5.61223 24.8718 6.70869C24.845 6.93462 24.6794 7.12062 24.4585 7.17325C24.4558 7.17325 24.4544 7.17325 24.4531 7.17461C23.2458 7.4645 22.0632 7.84921 20.914 8.32102C20.9113 8.32238 20.9085 8.32374 20.9058 8.32374C20.6971 8.41175 20.4562 8.35868 20.3029 8.19218C20.3015 8.19082 20.3002 8.18946 20.2988 8.1881C19.5512 7.38058 18.4996 6.23825 17.7233 5.39439C16.6636 4.24117 14.9319 4.00793 13.604 4.83865C13.5999 4.84137 13.5972 4.84409 13.5931 4.84545C12.4889 5.55135 11.4282 6.32215 10.4188 7.15684L10.4134 7.16228C9.21252 8.16624 8.89953 9.88433 9.66801 11.2476C10.2274 12.2474 10.9905 13.6025 11.5326 14.5644C11.6433 14.7622 11.6193 15.0103 11.47 15.1822C11.47 15.1836 11.4686 15.185 11.4673 15.1863C10.6611 16.1322 9.93078 17.1376 9.27785 18.1945C9.27649 18.1973 9.27512 18.2 9.27376 18.2027C9.15581 18.3951 8.92944 18.494 8.70714 18.4491H8.70305C7.62333 18.2349 6.10039 17.9287 4.97571 17.7023C3.44048 17.3925 1.90257 18.2213 1.31735 19.6753C1.31599 19.6794 1.31463 19.6821 1.31327 19.6862C0.833747 20.9056 0.428622 22.1536 0.103342 23.4216C0.103342 23.4244 0.101981 23.4271 0.101981 23.4298C-0.278639 24.9473 0.477165 26.5206 1.8998 27.1721C2.93915 27.6535 4.35369 28.3009 5.35759 28.7604C5.56355 28.8553 5.68967 29.0694 5.67062 29.2967V29.3021C5.57444 30.5406 5.57444 31.7846 5.66789 33.0231V33.0312C5.68695 33.2558 5.56219 33.4699 5.35623 33.5634C5.35486 33.5647 5.3535 33.5647 5.35214 33.5661C4.35226 34.0284 2.94041 34.6744 1.89842 35.153C0.474332 35.8045 -0.282773 37.3792 0.0978119 38.8994C0.0978119 38.9035 0.0991728 38.9076 0.100534 38.9103C0.429891 40.1783 0.835016 41.4263 1.31859 42.6444C1.31859 42.6471 1.31995 42.6485 1.32131 42.6512C1.90518 44.1024 3.44177 44.9318 4.97561 44.6229C6.09889 44.3992 7.62461 44.093 8.70562 43.8748C8.92928 43.8299 9.15702 43.9288 9.27634 44.1238C9.27634 44.1252 9.2777 44.1266 9.27906 44.1279C9.9278 45.1877 10.6596 46.193 11.463 47.1403C11.4644 47.143 11.4658 47.1444 11.4685 47.1471C11.6164 47.3191 11.6395 47.5645 11.5284 47.7609C11.5284 47.7636 11.527 47.765 11.527 47.7664C10.9903 48.7268 10.2273 50.0791 9.66519 51.079C8.89578 52.4436 9.20835 54.163 10.4106 55.1683C10.4133 55.1711 10.4174 55.1738 10.4201 55.1765C11.4322 56.0085 12.4929 56.7793 13.5985 57.4811C13.6012 57.4825 13.6039 57.4839 13.6053 57.4852C14.9318 58.3159 16.662 58.0827 17.7218 56.9309C18.4994 56.0911 19.5524 54.9461 20.2987 54.1345C20.4534 53.9666 20.697 53.9135 20.907 54.0016C20.9084 54.0016 20.9097 54.0029 20.9111 54.0029C22.0602 54.4774 23.2415 54.8622 24.4488 55.1561C24.4515 55.1561 24.4542 55.1575 24.457 55.1575C24.6779 55.2101 24.8421 55.3948 24.8675 55.6193V55.6234C24.9991 56.7172 25.1778 58.2587 25.3094 59.3984C25.4895 60.9553 26.7539 62.1612 28.3172 62.2697H28.328C29.6369 62.3481 30.9488 62.3481 32.2563 62.2656H32.2631C33.8238 62.1585 35.0867 60.9526 35.2668 59.3984C35.4024 58.2601 35.5812 56.7158 35.7087 55.6193C35.7354 55.3934 35.901 55.2074 36.122 55.1548C36.1247 55.1548 36.126 55.1548 36.1274 55.1534C37.3347 54.8635 38.5173 54.4788 39.6665 54.007C39.6692 54.0056 39.6719 54.0043 39.6746 54.0043C39.8833 53.9163 40.1242 53.9694 40.2776 54.1358C40.2789 54.1372 40.2803 54.1386 40.2817 54.1399C41.0293 54.9474 42.0809 56.0898 42.8571 56.9336C43.9169 58.0869 45.6485 58.3201 46.9764 57.4894C46.9805 57.4867 46.9832 57.4839 46.9873 57.4826C48.0916 56.7767 49.1523 56.0059 50.1616 55.1712L50.1671 55.1657C51.3679 54.1618 51.6809 52.4437 50.9124 51.0805C50.3531 50.0806 49.59 48.7255 49.0478 47.7637C48.9372 47.5659 48.9612 47.3177 49.1105 47.1458C49.1105 47.1444 49.1118 47.1431 49.1132 47.1417C49.9193 46.1958 50.6497 45.1905 51.3026 44.1335C51.304 44.1308 51.3053 44.128 51.3067 44.1253C51.4246 43.933 51.651 43.8341 51.8733 43.879H51.8774C52.9571 44.0931 54.4801 44.3993 55.6048 44.6257C57.14 44.9356 58.6779 44.1067 59.2631 42.6527C59.2645 42.6487 59.2658 42.6459 59.2672 42.6419C59.7467 41.4224 60.1518 40.1744 60.4771 38.9064C60.4771 38.9037 60.4785 38.9009 60.4785 38.8982C60.8591 37.3808 60.1033 35.8074 58.6807 35.1559C57.6413 34.6746 56.2268 34.0272 55.2229 33.5676C55.0169 33.4728 54.8908 33.2586 54.9098 33.0314V33.0259C55.006 31.7874 55.006 30.5435 54.9126 29.305V29.2968C54.8935 29.0722 55.0183 28.8581 55.2242 28.7646C55.2256 28.7633 55.227 28.7633 55.2283 28.7619C56.2282 28.2996 57.64 27.6536 58.682 27.175C60.1061 26.5235 60.8632 24.9489 60.4827 23.4286C60.4827 23.4245 60.4813 23.4205 60.4799 23.4177C60.1506 22.1497 59.7454 20.9017 59.2619 19.6836C59.2619 19.6809 59.2605 19.6796 59.2591 19.6768C58.6753 18.2256 57.1387 17.3962 55.6049 17.7052C54.4816 17.9288 52.9559 18.235 51.8748 18.4533C51.6512 18.4982 51.4234 18.3993 51.3041 18.2042C51.3041 18.2028 51.3028 18.2015 51.3014 18.2001C50.6527 17.1404 49.9209 16.1351 49.1174 15.1877C49.1161 15.185 49.1147 15.1836 49.112 15.1809C48.9641 15.009 48.9409 14.7635 49.0521 14.5671C49.0521 14.5644 49.0535 14.563 49.0535 14.5617C49.5901 13.6012 50.3532 12.2489 50.9153 11.249C51.6847 9.88442 51.3721 8.16499 50.1699 7.15969C50.1672 7.15697 50.1631 7.15425 50.1604 7.15153C49.1482 6.3195 48.0875 5.5487 46.982 4.84688C46.9793 4.84552 46.9766 4.84416 46.9752 4.8428C45.6487 4.01214 43.9184 4.24532 42.8587 5.39717C42.0811 6.23691 41.0281 7.38198 40.2818 8.19355C40.1271 8.3614 39.8835 8.41448 39.6734 8.32647C39.6721 8.32647 39.6707 8.32511 39.6693 8.32511C38.5202 7.85058 37.3389 7.46587 36.1317 7.17189C36.1289 7.17189 36.1262 7.17053 36.1235 7.17053C35.9026 7.1179 35.7383 6.93326 35.7129 6.70869V6.70461C35.5814 5.61082 35.4026 4.06932 35.2711 2.92965ZM32.5785 3.24132C32.7114 4.38364 32.8902 5.92934 33.0217 7.0258C33.1778 8.37777 34.1681 9.49281 35.4987 9.8072C36.5621 10.0662 37.6137 10.4074 38.6326 10.8289C39.8902 11.3547 41.3478 11.0362 42.2746 10.0295C43.02 9.21925 44.0711 8.07559 44.8505 7.23405C44.8519 7.23269 44.8533 7.23178 44.8533 7.23178C45.0279 7.0417 45.311 7.00268 45.5292 7.13515C46.5427 7.77754 47.5104 8.48073 48.4327 9.23969C48.6309 9.40755 48.6822 9.692 48.5547 9.91838L48.5534 9.91974C47.9899 10.921 47.2254 12.2775 46.6879 13.2406C46.0197 14.4279 46.1662 15.9113 47.0577 16.948C47.7649 17.7827 48.4155 18.6769 48.9925 19.6173C49.6998 20.781 51.0671 21.3798 52.4082 21.1103C53.4883 20.8934 55.0099 20.5858 56.136 20.3622H56.1401C56.3919 20.3109 56.6441 20.4447 56.743 20.682C57.1844 21.7971 57.5546 22.934 57.8554 24.09C57.9162 24.3431 57.79 24.6035 57.5546 24.7115H57.5532C56.5084 25.1915 55.0925 25.8388 54.0913 26.3025C52.8528 26.87 52.0993 28.1561 52.2104 29.5176C52.293 30.6096 52.293 31.7157 52.2077 32.8145C52.0965 34.1732 52.8501 35.4607 54.0926 36.0309H54.094C55.0952 36.4905 56.507 37.1365 57.5491 37.6174C57.5504 37.6174 57.5504 37.6187 57.5518 37.6187C57.7859 37.7258 57.9106 37.9835 57.8526 38.2325C57.5545 39.3953 57.1843 40.5322 56.7484 41.6432C56.6495 41.8845 56.3945 42.0211 56.14 41.9698H56.1386C55.0113 41.7421 53.4856 41.4345 52.4027 41.2204C51.0685 40.9522 49.7025 41.5497 48.9925 42.7175C48.4168 43.6484 47.7676 44.5426 47.0508 45.3828C46.1634 46.4153 46.0155 47.9002 46.6865 49.0928C47.2268 50.0518 47.9899 51.4056 48.5493 52.4068C48.5493 52.4082 48.5506 52.4095 48.5506 52.4109C48.6767 52.6345 48.6282 52.9163 48.4327 53.0828C47.509 53.8486 46.5414 54.5504 45.5361 55.1942C45.3151 55.3307 45.028 55.2917 44.8519 55.0989C44.0725 54.2523 43.0187 53.1073 42.2693 52.2971C41.3465 51.2958 39.8916 50.976 38.6299 51.5031C37.6165 51.9191 36.5662 52.2603 35.4933 52.5193C34.1667 52.8324 33.175 53.9475 33.0163 55.3062C32.8902 56.4 32.7114 57.9429 32.5762 59.0826V59.0866C32.5463 59.3416 32.3403 59.5408 32.084 59.5612C30.8877 59.6369 29.6913 59.6369 28.4992 59.5653C28.2401 59.5462 28.0314 59.3457 28.0019 59.0866C27.869 57.9443 27.6903 56.3986 27.5587 55.3022C27.4026 53.9502 26.4123 52.8351 25.0817 52.5208C24.0183 52.2617 22.9667 51.9206 21.9478 51.4991C20.6903 50.9733 19.2326 51.2918 18.3059 52.2985C17.5605 53.1087 16.5093 54.2524 15.7299 55.0939C15.7285 55.0953 15.7272 55.0962 15.7272 55.0962C15.5525 55.2863 15.2694 55.3253 15.0512 55.1928C14.0377 54.5504 13.07 53.8472 12.1478 53.0883C11.9495 52.9204 11.8983 52.636 12.0257 52.4096L12.0271 52.4082C12.5905 51.407 13.355 50.0505 13.8925 49.0874C14.5608 47.9001 14.4142 46.4166 13.5228 45.38C12.8155 44.5452 12.165 43.651 11.5879 42.7107C10.8806 41.547 9.51333 40.9482 8.17228 41.2177C7.0921 41.4346 5.57054 41.7421 4.44447 41.9658H4.44038C4.1886 42.0171 3.93637 41.8832 3.83746 41.646C3.39605 40.5309 3.02586 39.3939 2.72508 38.238C2.66429 37.9849 2.79041 37.7244 3.02586 37.6165H3.02722C4.07201 37.1365 5.48795 36.4891 6.48918 36.0255C7.72768 35.458 8.48119 34.1718 8.37004 32.8103C8.28748 31.7184 8.28748 30.6123 8.37277 29.5135C8.48391 28.1548 7.73038 26.8673 6.48784 26.2971H6.48648C5.48524 25.8375 4.07347 25.1915 3.03136 24.7106C3.03 24.7106 3.03 24.7092 3.02864 24.7092C2.79455 24.6022 2.6698 24.3445 2.72787 24.0954C3.02592 22.9326 3.39612 21.7958 3.83209 20.6848C3.93099 20.4434 4.18595 20.3069 4.44045 20.3582H4.44182C5.56917 20.5859 7.09488 20.8935 8.17775 21.1076C9.51195 21.3757 10.878 20.7782 11.5879 19.6105C12.1636 18.6795 12.8128 17.7854 13.5296 16.9452C14.417 15.9127 14.5649 14.4278 13.8939 13.2352C13.3536 12.2761 12.5905 10.9224 12.0312 9.92116C12.0312 9.9198 12.0298 9.91844 12.0298 9.91708C11.9037 9.69342 11.9523 9.41169 12.1478 9.2452C13.0714 8.4794 14.0391 7.77755 15.0444 7.1338C15.2653 6.99724 15.5525 7.03626 15.7285 7.22907C16.5079 8.07561 17.5618 9.22061 18.3112 10.0309C19.2339 11.0321 20.6889 11.352 21.9505 10.8248C22.964 10.4088 24.0143 10.0677 25.0872 9.80861C26.4137 9.49558 27.4054 8.38045 27.5642 7.02175C27.6903 5.92796 27.869 4.38506 28.0042 3.2454V3.24131C28.0342 2.98636 28.2401 2.78719 28.4965 2.76678C29.6928 2.69102 30.8891 2.69102 32.0813 2.7627C32.3403 2.78175 32.549 2.98227 32.5785 3.24132Z" fill="white"/>
<path fill-rule="evenodd" clip-rule="evenodd" d="M30.2893 13.5504C20.5677 13.5504 12.6758 21.4423 12.6758 31.1639C12.6758 40.8855 20.5677 48.7774 30.2893 48.7774C40.0109 48.7774 47.9029 40.8855 47.9029 31.1639C47.9029 21.4423 40.0109 13.5504 30.2893 13.5504ZM30.2893 16.2587C38.5147 16.2587 45.1945 22.9385 45.1945 31.1639C45.1945 39.3893 38.5147 46.0691 30.2893 46.0691C22.0639 46.0691 15.3841 39.3893 15.3841 31.1639C15.3841 22.9385 22.0639 16.2587 30.2893 16.2587Z" fill="white"/>
<path fill-rule="evenodd" clip-rule="evenodd" d="M30.2892 18.9682C23.5601 18.9682 18.0947 24.4336 18.0947 31.1628C18.0947 37.8924 23.5601 43.3573 30.2892 43.3573C37.0189 43.3573 42.4838 37.8924 42.4838 31.1628C42.4838 24.4336 37.0189 18.9682 30.2892 18.9682ZM30.2892 21.6784C35.525 21.6784 39.774 25.9275 39.774 31.1628C39.774 36.3985 35.525 40.6475 30.2892 40.6475C25.054 40.6475 20.8049 36.3985 20.8049 31.1628C20.8049 25.9275 25.054 21.6784 30.2892 21.6784Z" fill="white"/>
</svg>
