<svg width="52" height="52" viewBox="0 0 52 52" fill="none" xmlns="http://www.w3.org/2000/svg">
<circle cx="26" cy="26" r="26" fill="white"/>
<path d="M23.5927 31.4263V31.1177C23.6006 29.6853 23.7351 28.5456 23.9963 27.6989C24.2654 26.8521 24.6453 26.1715 25.1359 25.657C25.6266 25.1347 26.2241 24.6559 26.9284 24.2207C27.4112 23.9199 27.8425 23.5915 28.2224 23.2354C28.6101 22.8713 28.9148 22.4677 29.1364 22.0245C29.358 21.5734 29.4688 21.0709 29.4688 20.5169C29.4688 19.8917 29.3224 19.3496 29.0296 18.8906C28.7368 18.4316 28.3411 18.0755 27.8425 17.8222C27.3518 17.569 26.8018 17.4424 26.1924 17.4424C25.6305 17.4424 25.0963 17.565 24.5899 17.8104C24.0913 18.0478 23.6758 18.4118 23.3434 18.9025C23.0189 19.3852 22.8369 19.9986 22.7973 20.7425H18.5713C18.6109 19.2388 18.9749 17.9805 19.6634 16.9675C20.3598 15.9545 21.2779 15.1948 22.4175 14.6883C23.565 14.1818 24.8312 13.9286 26.2162 13.9286C27.7277 13.9286 29.0573 14.1937 30.2048 14.7239C31.3602 15.2541 32.2585 16.0099 32.8995 16.9913C33.5485 17.9647 33.8729 19.1201 33.8729 20.4576C33.8729 21.3598 33.7265 22.167 33.4337 22.8792C33.1488 23.5915 32.7412 24.2246 32.211 24.7786C31.6808 25.3326 31.0516 25.8272 30.3235 26.2625C29.6825 26.6582 29.1562 27.0697 28.7447 27.497C28.3411 27.9244 28.0403 28.4269 27.8425 29.0047C27.6526 29.5745 27.5536 30.2788 27.5457 31.1177V31.4263H23.5927ZM25.6582 38.8338C24.946 38.8338 24.3327 38.5806 23.8182 38.0741C23.3038 37.5676 23.0466 36.9503 23.0466 36.2222C23.0466 35.5099 23.3038 34.9006 23.8182 34.3941C24.3327 33.8876 24.946 33.6343 25.6582 33.6343C26.3626 33.6343 26.972 33.8876 27.4864 34.3941C28.0087 34.9006 28.2698 35.5099 28.2698 36.2222C28.2698 36.7049 28.1472 37.1442 27.9018 37.5399C27.6644 37.9356 27.3479 38.2521 26.9522 38.4895C26.5644 38.719 26.1331 38.8338 25.6582 38.8338Z" fill="black"/>
</svg>
